{"glyphs":{"0":{"ha":908,"x_min":86,"x_max":822,"o":"m 191 118 q 139 184 191 118 q 86 486 86 250 q 191 854 86 722 q 454 986 296 986 q 717 854 613 986 q 822 486 822 722 q 717 118 822 250 q 454 -14 613 -14 q 191 118 296 -14 m 222 824 q 175 764 222 824 q 128 486 128 704 q 222 148 128 268 q 454 28 315 28 q 687 148 593 28 q 781 486 781 268 q 687 824 781 704 q 454 944 593 944 q 222 824 315 944 z "},"1":{"ha":481,"x_min":36,"x_max":428,"o":"m 74 771 q 47 768 58 756 q 36 788 36 781 q 46 803 36 796 l 224 951 q 261 972 253 972 q 289 951 289 972 l 289 63 q 310 42 289 42 l 407 42 q 428 21 428 42 q 407 0 428 0 l 129 0 q 108 21 108 0 q 129 42 108 42 l 226 42 q 247 63 247 42 l 247 903 q 228 903 247 917 l 74 771 z "},"2":{"ha":826,"x_min":75,"x_max":736,"o":"m 417 986 q 650 907 564 986 q 736 731 736 828 q 673 561 736 633 q 519 436 610 489 l 342 339 q 189 230 253 292 q 125 97 125 168 l 125 63 q 146 42 125 42 l 674 42 q 694 63 694 42 l 694 215 q 715 236 694 236 q 736 215 736 236 l 736 21 q 715 0 736 0 l 104 0 q 83 21 83 0 l 83 97 q 217 311 83 208 q 300 365 256 342 l 478 464 q 631 577 567 511 q 694 727 694 643 q 619 878 694 811 q 417 944 544 944 q 252 913 332 944 q 113 818 172 881 q 86 814 97 803 q 75 832 75 825 q 83 847 75 839 q 417 986 225 986 z "},"3":{"ha":835,"x_min":75,"x_max":750,"o":"m 406 986 q 638 913 554 986 q 722 729 722 839 q 549 510 722 563 q 698 426 646 493 q 750 264 750 360 q 660 61 750 138 q 417 -14 569 -14 q 83 125 225 -14 q 75 139 75 133 q 81 150 75 144 q 113 154 99 168 q 252 60 172 92 q 417 28 332 28 q 631 91 554 28 q 708 261 708 154 q 643 427 708 368 q 472 486 578 486 l 326 486 q 306 507 306 486 q 326 528 306 528 l 444 528 q 617 583 553 528 q 681 732 681 639 q 606 885 681 825 q 406 944 531 944 q 255 912 326 944 q 129 832 183 879 q 99 833 114 818 q 100 861 85 847 q 235 950 161 914 q 406 986 310 986 z "},"4":{"ha":803,"x_min":19,"x_max":782,"o":"m 22 246 q 19 254 19 249 q 24 268 19 260 q 176 507 147 453 q 282 993 282 707 q 303 1014 282 1014 q 324 993 324 1014 q 256 586 322 747 q 185 442 219 501 q 92 299 151 382 q 107 278 82 278 l 567 278 q 588 299 588 278 l 588 696 q 608 717 588 717 q 629 696 629 717 l 629 299 q 650 278 629 278 l 761 278 q 782 257 782 278 q 761 236 782 236 l 650 236 q 629 215 629 236 l 629 7 q 608 -14 629 -14 q 588 7 588 -14 l 588 215 q 567 236 588 236 l 39 236 q 22 246 26 236 z "},"5":{"ha":794,"x_min":97,"x_max":729,"o":"m 97 951 q 118 972 97 972 l 660 972 q 681 951 681 972 q 660 931 681 931 l 160 931 q 139 910 139 931 l 139 583 q 160 567 139 556 q 393 625 269 625 q 643 543 557 625 q 729 319 729 461 q 561 51 729 144 q 125 -42 393 -42 q 104 -21 104 -42 q 125 0 104 0 q 606 139 457 0 q 688 327 688 213 q 612 513 688 442 q 392 583 536 583 q 139 508 247 583 q 117 500 119 500 q 97 521 97 500 l 97 951 z "},"6":{"ha":829,"x_min":79,"x_max":774,"o":"m 171 660 q 189 639 164 639 l 403 639 q 675 551 576 639 q 774 315 774 464 q 684 76 774 167 q 438 -14 594 -14 q 181 99 282 -14 q 79 417 79 213 q 233 839 79 664 q 635 1014 388 1014 q 656 993 656 1014 q 635 972 656 972 q 208 733 364 972 q 171 660 183 694 m 142 576 q 121 417 121 507 q 210 129 121 231 q 439 28 299 28 q 656 106 579 28 q 732 315 732 183 q 648 522 732 447 q 396 597 564 597 l 169 597 q 142 576 150 597 z "},"7":{"ha":647,"x_min":0,"x_max":651,"o":"m 632 972 q 651 954 651 972 q 647 940 651 949 l 544 768 q 367 404 422 557 q 292 21 292 196 q 271 0 292 0 q 250 21 250 0 q 585 910 250 382 q 569 931 594 931 l 63 931 q 42 910 42 931 l 42 757 q 21 736 42 736 q 0 757 0 736 l 0 951 q 21 972 0 972 l 632 972 z "},"8":{"ha":894,"x_min":79,"x_max":815,"o":"m 146 389 q 188 421 172 410 q 242 449 204 432 q 297 472 281 467 q 357 494 313 478 q 357 508 374 501 q 167 621 214 567 q 121 750 121 675 q 206 920 121 854 q 447 986 292 986 q 688 920 603 986 q 774 746 774 854 q 669 574 772 638 q 538 508 618 542 q 538 494 521 501 q 719 411 676 442 q 815 238 815 347 q 712 57 815 128 q 447 -14 608 -14 q 183 57 286 -14 q 79 232 79 128 q 146 389 79 336 m 121 236 q 211 85 121 143 q 447 28 301 28 q 683 85 593 28 q 774 236 774 143 q 732 346 774 304 l 704 372 q 542 449 663 408 l 494 464 q 447 479 458 475 q 400 464 436 475 l 353 449 q 243 404 285 426 q 190 372 201 382 l 163 346 q 121 236 121 304 m 163 750 q 288 583 163 644 q 447 524 347 554 q 675 628 618 576 q 732 758 732 679 q 660 891 732 838 q 447 944 588 944 q 235 891 307 944 q 163 750 163 838 z "},"9":{"ha":829,"x_min":56,"x_max":750,"o":"m 564 164 q 654 300 635 243 q 657 328 663 324 q 640 333 651 333 l 426 333 q 154 421 253 333 q 56 656 56 508 q 144 895 56 804 q 390 986 233 986 q 649 874 546 986 q 750 556 750 760 q 596 133 750 308 q 194 -42 442 -42 q 174 -21 174 -42 q 194 0 174 0 q 564 164 418 0 m 660 375 q 686 392 681 375 q 703 474 697 419 q 708 556 708 528 q 619 843 708 742 q 390 944 531 944 q 173 867 249 944 q 97 658 97 789 q 181 451 97 526 q 433 375 265 375 l 660 375 z "}," ":{"ha":389,"x_min":0,"x_max":0,"o":""},"!":{"ha":372,"x_min":111,"x_max":250,"o":"m 130 5 q 120 14 130 5 q 111 56 111 24 q 130 106 111 88 q 181 125 149 125 q 231 106 213 125 q 250 56 250 88 q 231 5 250 24 q 181 -14 213 -14 q 130 5 149 -14 m 160 257 l 160 951 q 181 972 160 972 q 201 951 201 972 l 201 257 q 181 236 201 236 q 160 257 160 236 z "},"\"":{"ha":436,"x_min":107,"x_max":329,"o":"m 107 660 l 107 951 q 128 972 107 972 q 149 951 149 972 l 149 660 q 128 639 149 639 q 107 660 107 639 m 288 660 l 288 951 q 308 972 288 972 q 329 951 329 972 l 329 660 q 308 639 329 639 q 288 660 288 639 z "},"#":{"ha":1056,"x_min":50,"x_max":1006,"o":"m 71 265 q 50 286 50 265 q 71 307 50 307 l 274 307 l 364 665 l 165 665 q 144 686 144 665 q 165 707 144 707 l 374 707 l 436 956 q 456 972 442 972 q 461 971 458 972 q 476 946 482 967 l 417 707 l 749 707 l 811 956 q 831 972 817 972 q 836 971 833 972 q 851 946 857 967 l 792 707 l 985 707 q 1006 686 1006 707 q 985 665 1006 665 l 781 665 l 692 307 l 890 307 q 911 286 911 307 q 890 265 911 265 l 681 265 l 619 17 q 600 0 614 0 q 594 1 597 0 q 579 26 574 6 l 639 265 l 306 265 l 244 17 q 225 0 239 0 q 219 1 222 0 q 204 26 199 6 l 264 265 l 71 265 m 317 307 l 649 307 l 739 665 l 406 665 l 317 307 z "},"$":{"ha":867,"x_min":83,"x_max":806,"o":"m 411 -11 q 147 104 267 3 q 125 90 125 122 l 125 21 q 104 0 125 0 q 83 21 83 0 l 83 285 q 104 306 83 306 q 125 285 125 306 l 125 181 q 321 51 197 99 q 411 31 361 36 l 411 481 q 215 548 278 517 q 117 625 151 579 q 83 731 83 671 q 160 917 83 847 q 403 986 236 986 l 411 986 l 411 1063 q 432 1083 411 1083 q 453 1063 453 1083 l 453 983 q 660 904 576 964 q 706 869 689 883 q 729 882 731 850 l 729 951 q 750 972 729 972 q 771 951 771 972 l 771 688 q 750 667 771 667 q 729 688 729 667 l 729 785 q 538 919 653 872 q 453 942 499 936 l 453 518 q 534 497 457 517 q 674 445 611 476 q 772 368 738 414 q 806 258 806 322 q 718 60 806 133 q 465 -14 631 -14 l 453 -14 l 453 -90 q 432 -111 453 -111 q 411 -90 411 -111 l 411 -11 m 465 28 q 687 90 610 28 q 764 250 764 151 q 730 344 764 304 q 647 407 696 385 q 547 443 597 429 q 453 469 497 457 l 453 28 l 465 28 m 125 743 q 159 649 125 689 q 242 586 193 608 q 335 551 292 564 q 411 529 379 539 l 411 944 l 403 944 q 193 886 261 944 q 125 743 125 828 z "},"%":{"ha":1089,"x_min":51,"x_max":1038,"o":"m 117 582 q 84 616 117 582 q 51 750 51 650 q 117 918 51 850 q 281 986 182 986 q 444 918 379 986 q 510 750 510 850 q 444 582 510 650 q 281 514 379 514 q 117 582 182 514 m 147 889 q 120 861 147 889 q 93 750 93 833 q 147 611 93 667 q 281 556 201 556 q 414 611 360 556 q 468 750 468 667 q 414 889 468 833 q 281 944 360 944 q 147 889 201 944 m 225 32 l 826 961 q 842 971 833 971 q 854 968 850 971 q 860 940 874 954 l 260 10 q 233 3 247 -6 q 219 17 219 11 q 225 32 219 25 m 644 54 q 612 88 644 54 q 579 222 579 122 q 644 390 579 322 q 808 458 710 458 q 972 390 907 458 q 1038 222 1038 322 q 972 54 1038 122 q 808 -14 907 -14 q 644 54 710 -14 m 675 361 q 648 333 675 361 q 621 222 621 306 q 675 83 621 139 q 808 28 729 28 q 942 83 888 28 q 996 222 996 139 q 942 361 996 306 q 808 417 888 417 q 675 361 729 417 z "},"&":{"ha":971,"x_min":63,"x_max":965,"o":"m 104 236 q 168 75 104 138 q 333 14 233 14 q 638 168 514 14 q 646 185 646 178 q 639 200 646 193 l 397 472 q 383 482 392 482 q 363 479 374 482 q 104 236 104 410 m 472 986 q 615 949 551 986 q 714 853 678 911 q 706 827 724 838 q 675 835 689 817 q 588 915 635 886 q 458 944 540 944 q 320 897 376 944 q 264 778 264 849 q 369 569 264 688 l 664 236 q 686 236 676 222 l 850 483 q 880 488 863 499 q 883 458 897 476 l 715 207 q 718 176 704 192 l 818 63 q 853 42 836 42 l 944 42 q 965 21 965 42 q 944 0 965 0 l 833 0 q 797 21 815 0 l 693 139 q 668 139 678 153 q 333 -28 536 -28 q 139 44 215 -28 q 63 229 63 117 q 133 412 63 342 q 335 513 204 482 q 336 542 356 519 q 255 656 288 600 q 222 778 222 713 q 289 930 222 874 q 472 986 356 986 z "},"'":{"ha":256,"x_min":107,"x_max":149,"o":"m 107 660 l 107 951 q 128 972 107 972 q 149 951 149 972 l 149 660 q 128 639 149 639 q 107 660 107 639 z "},"(":{"ha":390,"x_min":106,"x_max":326,"o":"m 106 361 l 106 500 q 157 828 106 676 q 286 1072 208 979 q 304 1082 296 1082 l 317 1078 q 326 1063 326 1069 q 321 1050 326 1056 q 197 818 246 960 q 147 500 147 676 l 147 361 q 197 42 147 185 q 321 -189 246 -101 q 326 -201 326 -194 q 318 -214 326 -208 q 304 -221 310 -221 l 286 -211 q 157 33 208 -118 q 106 361 106 185 z "},")":{"ha":390,"x_min":64,"x_max":285,"o":"m 69 -189 q 194 42 144 -101 q 243 361 243 185 l 243 500 q 194 818 243 676 q 69 1050 144 960 q 64 1063 64 1056 q 72 1075 64 1069 q 86 1082 81 1081 l 104 1072 q 233 828 182 979 q 285 500 285 676 l 285 361 q 233 33 285 185 q 104 -211 182 -118 q 86 -221 94 -221 l 74 -217 q 64 -200 64 -208 q 69 -189 64 -194 z "},"*":{"ha":622,"x_min":93,"x_max":529,"o":"m 97 624 q 93 639 93 631 q 106 653 93 647 l 254 738 q 261 747 261 740 q 254 757 261 753 l 106 842 q 93 856 93 847 q 97 871 93 864 q 126 878 107 889 l 268 794 q 290 806 290 782 l 290 951 q 311 972 290 972 q 332 951 332 972 l 332 806 q 354 794 332 782 l 496 878 q 525 871 515 889 q 529 856 529 864 q 517 842 529 847 l 368 757 q 361 747 361 753 q 368 738 361 740 l 517 653 q 529 639 529 647 q 525 624 529 631 q 496 617 515 606 l 354 699 q 332 688 332 711 l 332 549 q 311 528 332 528 q 290 549 290 528 l 290 688 q 268 699 290 711 l 126 617 q 97 624 107 606 z "},"+":{"ha":696,"x_min":56,"x_max":639,"o":"m 76 424 q 56 444 56 424 q 76 465 56 465 l 299 465 q 319 486 319 465 l 319 715 q 340 736 319 736 q 361 715 361 736 l 361 486 q 382 465 361 465 l 618 465 q 639 444 639 465 q 618 424 639 424 l 382 424 q 361 403 361 424 l 361 174 q 340 153 361 153 q 319 174 319 153 l 319 403 q 299 424 319 424 l 76 424 z "},",":{"ha":336,"x_min":99,"x_max":243,"o":"m 122 5 q 113 14 122 5 q 104 56 104 24 q 123 106 104 88 q 174 125 142 125 q 243 42 243 125 l 243 21 q 215 -102 243 -51 q 139 -174 188 -153 q 122 -178 131 -178 q 108 -168 114 -178 q 117 -142 99 -150 q 201 -14 201 -104 l 201 -3 q 161 -14 183 -14 q 122 5 139 -14 z "},"-":{"ha":794,"x_min":106,"x_max":689,"o":"m 126 424 q 106 444 106 424 q 126 465 106 465 l 668 465 q 689 444 689 465 q 668 424 689 424 l 126 424 z "},".":{"ha":336,"x_min":99,"x_max":238,"o":"m 117 5 q 108 14 117 5 q 99 56 99 24 q 117 106 99 88 q 168 125 136 125 q 219 106 200 125 q 238 56 238 88 q 219 5 238 24 q 168 -14 200 -14 q 117 5 136 -14 z "},"/":{"ha":719,"x_min":36,"x_max":682,"o":"m 42 32 l 643 961 q 658 971 650 971 q 671 968 667 971 q 682 953 682 960 q 676 940 682 946 l 76 10 q 61 0 69 0 q 44 6 53 0 q 36 17 36 11 q 42 32 36 25 z "},":":{"ha":350,"x_min":106,"x_max":244,"o":"m 124 5 q 115 14 124 5 q 106 56 106 24 q 124 106 106 88 q 175 125 143 125 q 226 106 207 125 q 244 56 244 88 q 226 5 244 24 q 175 -14 207 -14 q 124 5 143 -14 m 124 588 q 115 598 124 588 q 106 639 106 607 q 124 690 106 671 q 175 708 143 708 q 226 690 207 708 q 244 639 244 671 q 226 588 244 607 q 175 569 207 569 q 124 588 143 569 z "},";":{"ha":350,"x_min":106,"x_max":250,"o":"m 129 5 q 120 14 129 5 q 111 56 111 24 q 130 106 111 88 q 181 125 149 125 q 250 42 250 125 l 250 21 q 222 -102 250 -51 q 146 -174 194 -153 q 131 -178 139 -178 q 115 -168 122 -178 q 124 -142 106 -150 q 208 -14 208 -104 l 208 -3 q 169 -14 192 -14 q 129 5 147 -14 m 130 588 q 120 598 130 588 q 111 639 111 607 q 130 690 111 671 q 181 708 149 708 q 231 690 213 708 q 250 639 250 671 q 231 588 250 607 q 181 569 213 569 q 130 588 149 569 z "},"<":{"ha":693,"x_min":46,"x_max":615,"o":"m 61 324 q 46 347 46 332 q 60 369 46 361 l 582 669 q 597 675 589 675 q 610 665 606 675 q 615 647 615 656 q 604 633 615 639 l 128 358 q 128 333 108 346 l 604 60 q 615 44 615 51 q 610 28 615 38 q 597 18 606 18 q 582 24 589 18 l 61 324 z "},"=":{"ha":806,"x_min":111,"x_max":694,"o":"m 132 285 q 111 306 111 285 q 132 326 111 326 l 674 326 q 694 306 694 326 q 674 285 694 285 l 132 285 m 132 563 q 111 583 111 563 q 132 604 111 604 l 674 604 q 694 583 694 604 q 674 563 694 563 l 132 563 z "},">":{"ha":693,"x_min":78,"x_max":647,"o":"m 111 24 q 97 18 104 18 q 83 28 89 18 q 78 44 78 38 q 89 60 78 51 l 565 333 q 565 358 583 346 l 89 633 q 78 647 78 639 q 83 665 78 656 q 97 675 89 675 q 111 669 104 675 l 633 369 q 647 347 647 361 q 632 324 647 332 l 111 24 z "},"?":{"ha":753,"x_min":49,"x_max":688,"o":"m 49 708 q 134 910 49 835 q 367 986 219 986 q 601 907 515 986 q 688 722 688 828 q 657 594 688 649 q 583 507 626 540 l 494 442 q 389 257 389 365 q 368 236 389 236 q 347 257 347 236 q 369 364 347 317 q 425 439 392 411 l 568 554 q 624 624 601 581 q 646 722 646 668 q 571 878 646 811 q 367 944 496 944 q 165 881 239 944 q 90 708 90 818 q 69 688 90 688 q 49 708 49 688 m 317 5 q 308 14 317 5 q 299 56 299 24 q 317 106 299 88 q 368 125 336 125 q 419 106 400 125 q 438 56 438 88 q 419 5 438 24 q 368 -14 400 -14 q 317 5 336 -14 z "},"@":{"ha":1281,"x_min":71,"x_max":1224,"o":"m 238 -87 q 155 1 238 -87 q 71 361 71 89 q 238 810 71 633 q 647 986 406 986 q 1056 810 889 986 q 1224 361 1224 633 q 1167 88 1224 190 q 1018 -14 1110 -14 q 869 97 907 -14 q 847 111 861 126 q 613 -14 736 -14 q 401 81 489 -14 q 314 347 314 175 q 401 614 314 519 q 613 708 489 708 q 847 583 736 708 q 864 578 858 572 q 869 597 869 583 l 869 674 q 890 694 869 694 q 911 674 911 694 l 911 153 q 940 60 911 92 q 1018 28 968 28 q 1136 119 1090 28 q 1182 361 1182 211 q 1028 781 1182 618 q 647 944 875 944 q 266 781 419 944 q 113 361 113 618 q 266 -59 113 104 q 650 -222 419 -222 q 993 -96 881 -222 q 1022 -96 1008 -81 q 1022 -125 1036 -111 q 650 -264 894 -264 q 238 -87 406 -264 m 431 585 q 393 545 431 585 q 356 347 356 504 q 431 108 356 190 q 611 28 506 28 q 803 125 717 28 q 869 222 842 169 l 869 472 q 803 569 842 525 q 611 667 717 667 q 431 585 506 667 z "},"A":{"ha":1006,"x_min":-14,"x_max":1019,"o":"m 511 896 q 503 904 508 904 q 494 896 497 904 l 304 401 q 319 381 293 381 l 686 381 q 701 401 711 381 l 511 896 m 733 319 q 700 339 725 339 l 306 339 q 272 319 281 339 l 174 63 q 188 42 163 42 l 271 42 q 292 21 292 42 q 271 0 292 0 l 7 0 q -14 21 -14 0 q 7 42 -14 42 l 97 42 q 125 63 114 42 l 472 965 q 503 986 478 986 q 533 965 528 986 l 881 63 q 908 42 890 42 l 999 42 q 1019 21 1019 42 q 999 0 1019 0 l 735 0 q 714 21 714 0 q 735 42 714 42 l 818 42 q 832 63 842 42 l 733 319 z "},"B":{"ha":904,"x_min":64,"x_max":828,"o":"m 626 519 q 828 253 828 481 q 759 71 828 142 q 564 0 690 0 l 85 0 q 64 21 64 0 q 85 42 64 42 l 182 42 q 203 63 203 42 l 203 910 q 182 931 203 931 l 85 931 q 64 951 64 931 q 85 972 64 972 l 508 972 q 689 903 619 972 q 758 729 758 833 q 626 519 758 582 m 244 549 q 265 528 244 528 l 515 528 q 660 587 603 528 q 717 732 717 646 q 660 874 717 818 q 508 931 604 931 l 265 931 q 244 910 244 931 l 244 549 m 244 63 q 265 42 244 42 l 564 42 q 727 101 668 42 q 786 264 786 160 q 727 427 786 368 q 564 486 668 486 l 265 486 q 244 465 244 486 l 244 63 z "},"C":{"ha":965,"x_min":81,"x_max":900,"o":"m 81 486 q 203 844 81 703 q 518 986 325 986 q 822 868 686 986 q 844 882 844 850 l 844 951 q 865 972 844 972 q 886 951 886 972 l 886 688 q 865 667 886 667 q 844 688 844 667 l 844 785 q 757 864 807 828 q 518 944 643 944 q 235 813 347 944 q 122 484 122 682 q 239 157 122 286 q 550 28 356 28 q 864 154 744 28 q 889 157 878 168 q 900 139 900 146 q 893 125 900 132 q 544 -14 751 -14 q 208 128 336 -14 q 81 486 81 269 z "},"D":{"ha":1019,"x_min":64,"x_max":939,"o":"m 85 0 q 64 21 64 0 q 85 42 64 42 l 182 42 q 203 63 203 42 l 203 910 q 182 931 203 931 l 85 931 q 64 951 64 931 q 85 972 64 972 l 474 972 q 811 833 683 972 q 939 486 939 694 q 811 139 939 278 q 474 0 683 0 l 85 0 m 244 63 q 265 42 244 42 l 474 42 q 780 168 663 42 q 897 486 897 294 q 780 804 897 678 q 474 931 663 931 l 265 931 q 244 910 244 931 l 244 63 z "},"E":{"ha":853,"x_min":64,"x_max":779,"o":"m 85 0 q 64 21 64 0 q 85 42 64 42 l 182 42 q 203 63 203 42 l 203 910 q 182 931 203 931 l 85 931 q 64 951 64 931 q 85 972 64 972 l 744 972 q 765 951 765 972 l 765 757 q 744 736 765 736 q 724 757 724 736 l 724 910 q 703 931 724 931 l 265 931 q 244 910 244 931 l 244 535 q 265 514 244 514 l 578 514 q 599 535 599 514 l 599 604 q 619 625 599 625 q 640 604 640 625 l 640 382 q 619 361 640 361 q 599 382 599 361 l 599 451 q 578 472 599 472 l 265 472 q 244 451 244 472 l 244 63 q 265 42 244 42 l 717 42 q 738 63 738 42 l 738 215 q 758 236 738 236 q 779 215 779 236 l 779 21 q 758 0 779 0 l 85 0 z "},"F":{"ha":814,"x_min":64,"x_max":765,"o":"m 85 42 l 182 42 q 203 63 203 42 l 203 910 q 182 931 203 931 l 85 931 q 64 951 64 931 q 85 972 64 972 l 744 972 q 765 951 765 972 l 765 757 q 744 736 765 736 q 724 757 724 736 l 724 910 q 703 931 724 931 l 265 931 q 244 910 244 931 l 244 535 q 265 514 244 514 l 592 514 q 613 535 613 514 l 613 604 q 633 625 613 625 q 654 604 654 625 l 654 382 q 633 361 654 361 q 613 382 613 361 l 613 451 q 592 472 613 472 l 265 472 q 244 451 244 472 l 244 63 q 265 42 244 42 l 376 42 q 397 21 397 42 q 376 0 397 0 l 85 0 q 64 21 64 0 q 85 42 64 42 z "},"G":{"ha":1061,"x_min":81,"x_max":1025,"o":"m 122 485 q 122 386 122 485 q 237 158 122 288 q 526 28 351 28 q 844 188 701 28 l 844 451 q 824 472 844 472 l 740 472 q 719 493 719 472 q 740 514 719 514 l 1004 514 q 1025 493 1025 514 q 1004 472 1025 472 l 907 472 q 886 451 886 472 l 886 21 q 865 0 886 0 q 844 21 844 0 l 844 90 q 822 104 844 124 q 532 -14 685 -14 q 206 128 331 -14 q 81 485 81 269 q 203 844 81 701 q 518 986 326 986 q 822 868 685 986 q 844 882 844 849 l 844 951 q 865 972 844 972 q 886 951 886 972 l 886 688 q 865 667 886 667 q 844 688 844 667 l 844 785 q 757 864 807 828 q 518 944 643 944 q 235 814 347 944 q 122 485 122 683 z "},"H":{"ha":1086,"x_min":64,"x_max":1022,"o":"m 842 910 q 821 931 842 931 l 738 931 q 717 951 717 931 q 738 972 717 972 l 1001 972 q 1022 951 1022 972 q 1001 931 1022 931 l 904 931 q 883 910 883 931 l 883 63 q 904 42 883 42 l 1001 42 q 1022 21 1022 42 q 1001 0 1022 0 l 738 0 q 717 21 717 0 q 738 42 717 42 l 821 42 q 842 63 842 42 l 842 451 q 821 472 842 472 l 265 472 q 244 451 244 472 l 244 63 q 265 42 244 42 l 349 42 q 369 21 369 42 q 349 0 369 0 l 85 0 q 64 21 64 0 q 85 42 64 42 l 182 42 q 203 63 203 42 l 203 910 q 182 931 203 931 l 85 931 q 64 951 64 931 q 85 972 64 972 l 349 972 q 369 951 369 972 q 349 931 369 931 l 265 931 q 244 910 244 931 l 244 535 q 265 514 244 514 l 821 514 q 842 535 842 514 l 842 910 z "},"I":{"ha":447,"x_min":64,"x_max":383,"o":"m 85 0 q 64 21 64 0 q 85 42 64 42 l 182 42 q 203 63 203 42 l 203 910 q 182 931 203 931 l 85 931 q 64 951 64 931 q 85 972 64 972 l 363 972 q 383 951 383 972 q 363 931 383 931 l 265 931 q 244 910 244 931 l 244 63 q 265 42 244 42 l 363 42 q 383 21 383 42 q 363 0 383 0 l 85 0 z "},"J":{"ha":701,"x_min":24,"x_max":658,"o":"m 67 138 q 154 57 107 86 q 281 28 201 28 q 419 88 361 28 q 478 257 478 147 l 478 910 q 457 931 478 931 l 360 931 q 339 951 339 931 q 360 972 339 972 l 638 972 q 658 951 658 972 q 638 931 658 931 l 540 931 q 519 910 519 931 l 519 257 q 451 57 519 128 q 269 -14 382 -14 q 127 24 190 -14 q 28 119 64 61 q 24 132 24 125 q 39 147 24 139 q 67 138 53 156 z "},"K":{"ha":967,"x_min":64,"x_max":967,"o":"m 85 42 l 182 42 q 203 63 203 42 l 203 910 q 182 931 203 931 l 85 931 q 64 951 64 931 q 85 972 64 972 l 349 972 q 369 951 369 972 q 349 931 369 931 l 265 931 q 244 910 244 931 l 244 396 l 717 910 q 723 924 725 917 q 710 931 721 931 l 619 931 q 599 951 599 931 q 619 972 599 972 l 904 972 q 925 951 925 972 q 904 931 925 931 l 815 931 q 779 910 800 931 l 458 561 l 821 63 q 856 42 839 42 l 946 42 q 967 21 967 42 q 946 0 967 0 l 668 0 q 647 21 647 0 q 668 42 647 42 l 758 42 q 765 63 783 42 l 428 528 l 244 328 l 244 63 q 265 42 244 42 l 349 42 q 369 21 369 42 q 349 0 369 0 l 85 0 q 64 21 64 0 q 85 42 64 42 z "},"L":{"ha":803,"x_min":64,"x_max":772,"o":"m 85 0 q 64 21 64 0 q 85 42 64 42 l 182 42 q 203 63 203 42 l 203 910 q 182 931 203 931 l 85 931 q 64 951 64 931 q 85 972 64 972 l 390 972 q 411 951 411 972 q 390 931 411 931 l 265 931 q 244 910 244 931 l 244 63 q 265 42 244 42 l 710 42 q 731 63 731 42 l 731 215 q 751 236 731 236 q 772 215 772 236 l 772 21 q 751 0 772 0 l 85 0 z "},"M":{"ha":1350,"x_min":64,"x_max":1286,"o":"m 85 42 l 182 42 q 203 63 203 42 l 203 910 q 182 931 203 931 l 85 931 q 64 951 64 931 q 85 972 64 972 l 238 972 q 272 951 263 972 l 661 90 q 689 90 675 63 l 1078 951 q 1113 972 1088 972 l 1265 972 q 1286 951 1286 972 q 1265 931 1286 931 l 1168 931 q 1147 910 1147 931 l 1147 63 q 1168 42 1147 42 l 1265 42 q 1286 21 1286 42 q 1265 0 1286 0 l 1001 0 q 981 21 981 0 q 1001 42 981 42 l 1085 42 q 1106 63 1106 42 l 1106 875 q 1100 886 1106 889 q 1094 882 1097 886 l 706 21 q 675 0 694 0 q 644 21 656 0 l 256 882 q 247 886 250 890 q 244 875 244 882 l 244 63 q 265 42 244 42 l 349 42 q 369 21 369 42 q 349 0 369 0 l 85 0 q 64 21 64 0 q 85 42 64 42 z "},"N":{"ha":1090,"x_min":64,"x_max":1036,"o":"m 85 42 l 182 42 q 203 63 203 42 l 203 910 q 182 931 203 931 l 85 931 q 64 951 64 931 q 85 972 64 972 l 238 972 q 272 951 260 972 l 842 83 q 850 78 844 78 q 856 90 856 79 l 856 910 q 835 931 856 931 l 751 931 q 731 951 731 931 q 751 972 731 972 l 1015 972 q 1036 951 1036 972 q 1015 931 1036 931 l 918 931 q 897 910 897 931 l 897 63 q 918 42 897 42 l 1015 42 q 1036 21 1036 42 q 1015 0 1036 0 l 863 0 q 828 21 840 0 l 258 889 q 250 894 256 894 q 244 882 244 893 l 244 63 q 265 42 244 42 l 349 42 q 369 21 369 42 q 349 0 369 0 l 85 0 q 64 21 64 0 q 85 42 64 42 z "},"O":{"ha":1092,"x_min":81,"x_max":1011,"o":"m 208 127 q 144 198 208 127 q 81 486 81 268 q 208 845 81 704 q 546 986 336 986 q 883 845 756 986 q 1011 486 1011 704 q 883 127 1011 268 q 546 -14 756 -14 q 208 127 336 -14 m 239 815 q 181 751 239 815 q 122 486 122 686 q 239 157 122 286 q 546 28 356 28 q 853 157 736 28 q 969 486 969 286 q 853 815 969 686 q 546 944 736 944 q 239 815 356 944 z "},"P":{"ha":879,"x_min":64,"x_max":828,"o":"m 265 389 q 244 368 244 389 l 244 63 q 265 42 244 42 l 376 42 q 397 21 397 42 q 376 0 397 0 l 85 0 q 64 21 64 0 q 85 42 64 42 l 182 42 q 203 63 203 42 l 203 910 q 182 931 203 931 l 85 931 q 64 951 64 931 q 85 972 64 972 l 550 972 q 758 898 688 972 q 828 681 828 824 q 758 463 828 538 q 550 389 688 389 l 265 389 m 550 431 q 786 681 786 431 q 550 931 786 931 l 265 931 q 244 910 244 931 l 244 451 q 265 431 244 431 l 550 431 z "},"Q":{"ha":1093,"x_min":81,"x_max":1011,"o":"m 685 6 q 778 -83 731 -68 q 848 -65 824 -83 q 884 -64 872 -47 q 880 -92 896 -81 q 835 -115 864 -104 q 778 -125 806 -125 q 642 -6 688 -125 q 546 -14 597 -14 q 208 126 336 -14 q 81 487 81 269 q 208 845 81 704 q 545 986 335 986 q 883 845 756 986 q 1011 486 1011 704 q 924 177 1011 307 q 685 6 838 47 m 414 46 q 546 165 454 165 q 624 134 594 165 q 674 44 654 103 q 853 157 778 74 q 969 486 969 286 q 853 815 969 686 q 546 944 736 944 q 239 815 356 944 q 122 486 122 686 q 239 157 122 286 q 414 46 313 75 m 457 35 q 553 28 510 28 q 631 35 596 28 q 546 124 606 124 q 457 35 482 124 z "},"R":{"ha":956,"x_min":64,"x_max":939,"o":"m 550 486 q 725 544 664 486 q 786 708 786 603 q 725 872 786 814 q 550 931 664 931 l 265 931 q 244 910 244 931 l 244 507 q 265 486 244 486 l 550 486 m 244 63 q 265 42 244 42 l 349 42 q 369 21 369 42 q 349 0 369 0 l 85 0 q 64 21 64 0 q 85 42 64 42 l 182 42 q 203 63 203 42 l 203 910 q 182 931 203 931 l 85 931 q 64 951 64 931 q 85 972 64 972 l 550 972 q 756 903 685 972 q 828 708 828 833 q 756 514 828 583 q 550 444 685 444 l 543 444 q 527 438 532 444 q 529 424 522 432 l 793 63 q 828 42 811 42 l 918 42 q 939 21 939 42 q 918 0 939 0 l 640 0 q 619 21 619 0 q 640 42 619 42 l 731 42 q 738 63 756 42 l 460 444 l 265 444 q 244 424 244 444 l 244 63 z "},"S":{"ha":896,"x_min":97,"x_max":819,"o":"m 228 104 q 484 28 344 28 q 701 90 624 28 q 778 250 778 151 q 744 344 778 304 q 661 407 711 385 q 446 476 606 432 q 226 549 286 519 q 131 625 165 579 q 97 731 97 671 q 174 917 97 847 q 417 986 250 986 q 721 868 582 986 q 743 882 743 850 l 743 951 q 764 972 743 972 q 785 951 785 972 l 785 688 q 764 667 785 667 q 743 688 743 667 l 743 785 q 553 919 667 872 q 417 944 492 944 q 207 886 275 944 q 139 743 139 828 q 172 649 139 689 q 256 586 206 608 q 471 517 311 561 q 691 444 631 474 q 785 368 751 414 q 819 258 819 322 q 732 60 819 133 q 472 -14 644 -14 q 161 104 300 -14 q 139 90 139 122 l 139 21 q 118 0 139 0 q 97 21 97 0 l 97 285 q 118 306 97 306 q 139 285 139 306 l 139 181 q 228 104 176 138 z "},"T":{"ha":858,"x_min":36,"x_max":828,"o":"m 36 750 l 36 951 q 57 972 36 972 l 807 972 q 828 951 828 972 l 828 750 q 807 729 828 729 q 786 750 786 729 l 786 910 q 765 931 786 931 l 474 931 q 453 910 453 931 l 453 63 q 474 42 453 42 l 571 42 q 592 21 592 42 q 571 0 592 0 l 293 0 q 272 21 272 0 q 293 42 272 42 l 390 42 q 411 63 411 42 l 411 910 q 390 931 411 931 l 99 931 q 78 910 78 931 l 78 750 q 57 729 78 729 q 36 750 36 729 z "},"U":{"ha":1078,"x_min":39,"x_max":1039,"o":"m 60 972 l 324 972 q 344 951 344 972 q 324 931 344 931 l 240 931 q 219 910 219 931 l 219 347 q 310 115 219 203 q 539 28 400 28 q 768 115 678 28 q 858 347 858 203 l 858 910 q 838 931 858 931 l 754 931 q 733 951 733 931 q 754 972 733 972 l 1018 972 q 1039 951 1039 972 q 1018 931 1039 931 l 921 931 q 900 910 900 931 l 900 347 q 798 87 900 188 q 539 -14 696 -14 q 280 87 382 -14 q 178 347 178 188 l 178 910 q 157 931 178 931 l 60 931 q 39 951 39 931 q 60 972 39 972 z "},"V":{"ha":1006,"x_min":-14,"x_max":1019,"o":"m 7 972 l 271 972 q 292 951 292 972 q 271 931 292 931 l 188 931 q 174 910 164 931 l 494 76 q 503 68 497 68 q 511 76 508 68 l 832 910 q 818 931 842 931 l 735 931 q 714 951 714 931 q 735 972 714 972 l 999 972 q 1019 951 1019 972 q 999 931 1019 931 l 908 931 q 881 910 892 931 l 533 7 q 503 -14 528 -14 q 472 7 478 -14 l 125 910 q 97 931 114 931 l 7 931 q -14 951 -14 931 q 7 972 -14 972 z "},"W":{"ha":1407,"x_min":-14,"x_max":1421,"o":"m 7 972 l 271 972 q 292 951 292 972 q 271 931 292 931 l 188 931 q 174 910 164 931 l 422 107 q 431 99 425 99 q 439 107 436 99 l 676 951 q 704 972 683 972 q 732 951 725 972 l 968 107 q 976 99 971 99 q 985 107 982 99 l 1233 910 q 1219 931 1244 931 l 1136 931 q 1115 951 1115 931 q 1136 972 1115 972 l 1400 972 q 1421 951 1421 972 q 1400 931 1421 931 l 1310 931 q 1282 910 1289 931 l 1003 7 q 976 -14 997 -14 q 950 7 956 -14 l 713 854 q 703 863 710 863 q 693 854 696 863 l 457 7 q 431 -14 450 -14 q 404 7 411 -14 l 125 910 q 97 931 119 931 l 7 931 q -14 951 -14 931 q 7 972 -14 972 z "},"X":{"ha":918,"x_min":10,"x_max":908,"o":"m 31 42 l 114 42 q 149 63 136 42 l 426 483 q 426 508 435 496 l 163 910 q 128 931 150 931 l 44 931 q 24 951 24 931 q 44 972 24 972 l 308 972 q 329 951 329 972 q 308 931 329 931 l 225 931 q 210 924 214 931 q 211 910 206 918 l 449 549 q 468 549 458 535 l 707 910 q 708 924 713 918 q 693 931 704 931 l 610 931 q 589 951 589 931 q 610 972 589 972 l 874 972 q 894 951 894 972 q 874 931 894 931 l 790 931 q 756 910 768 931 l 492 508 q 492 483 483 496 l 769 63 q 804 42 782 42 l 888 42 q 908 21 908 42 q 888 0 908 0 l 624 0 q 603 21 603 0 q 624 42 603 42 l 707 42 q 722 48 718 42 q 721 63 726 54 l 468 444 q 449 444 458 458 l 197 63 q 196 48 192 54 q 211 42 200 42 l 294 42 q 315 21 315 42 q 294 0 315 0 l 31 0 q 10 21 10 0 q 31 42 10 42 z "},"Y":{"ha":871,"x_min":-14,"x_max":885,"o":"m 7 972 l 271 972 q 292 951 292 972 q 271 931 292 931 l 188 931 q 172 924 176 931 q 174 910 168 918 l 425 471 q 444 471 435 457 l 697 910 q 699 924 703 918 q 683 931 694 931 l 600 931 q 579 951 579 931 q 600 972 579 972 l 864 972 q 885 951 885 972 q 864 931 885 931 l 781 931 q 746 910 758 931 l 457 408 l 457 63 q 478 42 457 42 l 575 42 q 596 21 596 42 q 575 0 596 0 l 297 0 q 276 21 276 0 q 297 42 276 42 l 394 42 q 415 63 415 42 l 415 406 l 125 910 q 90 931 113 931 l 7 931 q -14 951 -14 931 q 7 972 -14 972 z "},"Z":{"ha":854,"x_min":69,"x_max":785,"o":"m 69 24 q 86 56 69 29 l 710 908 q 714 924 718 917 q 694 931 710 931 l 139 931 q 118 910 118 931 l 118 757 q 97 736 118 736 q 76 757 76 736 l 76 951 q 97 972 76 972 l 764 972 q 785 949 785 972 q 768 917 785 943 l 144 64 q 140 49 136 56 q 160 42 144 42 l 715 42 q 736 63 736 42 l 736 215 q 757 236 736 236 q 778 215 778 236 l 778 21 q 757 0 778 0 l 90 0 q 69 24 69 0 z "},"[":{"ha":403,"x_min":149,"x_max":371,"o":"m 149 -201 l 149 1063 q 169 1083 149 1083 l 350 1083 q 371 1063 371 1083 q 350 1042 371 1042 l 211 1042 q 190 1021 190 1042 l 190 -160 q 211 -181 190 -181 l 350 -181 q 371 -201 371 -181 q 350 -222 371 -222 l 169 -222 q 149 -201 149 -222 z "},"\\":{"ha":721,"x_min":38,"x_max":683,"o":"m 43 940 q 38 951 38 946 q 49 968 38 960 q 61 971 53 971 q 76 961 69 971 l 678 32 q 683 17 683 25 q 675 6 683 8 q 658 0 667 0 q 643 10 650 0 l 43 940 z "},"]":{"ha":403,"x_min":32,"x_max":254,"o":"m 53 -222 q 32 -201 32 -222 q 53 -181 32 -181 l 192 -181 q 213 -160 213 -181 l 213 1021 q 192 1042 213 1042 l 53 1042 q 32 1063 32 1042 q 53 1083 32 1083 l 233 1083 q 254 1063 254 1083 l 254 -201 q 233 -222 254 -222 l 53 -222 z "},"^":{"ha":649,"x_min":29,"x_max":619,"o":"m 33 647 l 301 1013 q 324 1028 310 1028 q 347 1013 339 1028 l 615 647 q 619 634 619 642 q 611 620 619 626 q 594 614 603 614 q 579 625 586 614 l 338 954 q 324 963 332 963 q 311 954 317 963 l 69 625 q 54 614 63 614 q 38 620 46 614 q 29 634 29 626 q 33 647 29 642 z "},"_":{"ha":983,"x_min":263,"x_max":721,"o":"m 283 -111 q 263 -90 263 -111 q 283 -69 263 -69 l 700 -69 q 721 -90 721 -69 q 700 -111 721 -111 l 283 -111 z "},"`":{"ha":336,"x_min":83,"x_max":253,"o":"m 89 965 q 83 981 83 972 q 94 993 83 989 q 108 1000 100 1000 q 124 988 117 1000 l 247 811 q 253 797 253 804 q 243 783 253 790 q 228 779 236 779 q 214 788 219 779 l 89 965 z "},"a":{"ha":794,"x_min":57,"x_max":765,"o":"m 585 340 q 564 361 585 361 l 335 361 q 156 314 214 361 q 99 194 99 267 q 152 74 99 121 q 314 28 206 28 q 551 164 449 28 q 585 215 569 188 l 585 340 m 368 708 q 556 642 485 708 q 626 479 626 576 l 626 63 q 647 42 626 42 l 744 42 q 765 21 765 42 q 744 0 765 0 l 606 0 q 585 21 585 0 l 585 99 q 579 118 585 113 q 563 113 574 124 q 458 26 525 65 q 319 -14 392 -14 q 124 44 190 -14 q 57 193 57 101 q 133 344 57 285 q 335 403 210 403 l 564 403 q 585 424 585 403 l 585 479 q 524 613 585 560 q 374 667 463 667 q 228 642 285 667 q 148 600 171 618 q 113 599 125 582 q 117 626 101 615 q 368 708 217 708 z "},"b":{"ha":832,"x_min":-6,"x_max":758,"o":"m 175 215 q 246 121 207 160 q 455 28 339 28 q 644 112 571 28 q 717 347 717 196 q 629 575 717 497 q 383 653 542 653 l 196 653 q 175 632 175 653 l 175 215 m 175 715 q 196 694 175 694 l 383 694 q 658 604 560 694 q 758 346 758 514 q 675 83 758 179 q 453 -14 592 -14 q 297 26 367 -14 q 197 113 232 68 q 181 118 186 124 q 175 99 175 113 l 175 21 q 154 0 175 0 q 133 21 133 0 l 133 910 q 113 931 133 931 l 15 931 q -6 951 -6 931 q 15 972 -6 972 l 154 972 q 175 951 175 972 l 175 715 z "},"c":{"ha":763,"x_min":71,"x_max":689,"o":"m 640 521 q 376 667 528 667 q 188 578 264 667 q 113 344 113 488 q 192 115 113 201 q 400 28 271 28 q 614 97 528 28 q 649 125 636 114 q 668 133 661 136 q 682 121 675 129 q 689 106 689 113 q 676 88 689 100 q 565 17 631 47 q 397 -14 499 -14 q 160 87 250 -14 q 71 347 71 188 q 158 608 71 507 q 380 708 246 708 q 618 604 514 708 q 640 618 640 585 l 640 674 q 661 694 640 694 q 682 674 682 694 l 682 451 q 661 431 682 431 q 640 451 640 431 l 640 521 z "},"d":{"ha":876,"x_min":69,"x_max":833,"o":"m 653 910 q 632 931 653 931 l 521 931 q 500 951 500 931 q 521 972 500 972 l 674 972 q 694 951 694 972 l 694 63 q 715 42 694 42 l 813 42 q 833 21 833 42 q 813 0 833 0 l 674 0 q 653 21 653 0 l 653 99 q 647 118 653 113 q 631 113 642 124 q 528 26 596 67 q 383 -14 461 -14 q 153 83 236 -14 q 69 346 69 179 q 169 603 69 513 q 444 694 268 694 l 632 694 q 653 715 653 694 l 653 910 m 653 632 q 632 653 653 653 l 444 653 q 199 575 286 653 q 111 347 111 497 q 184 112 111 196 q 373 28 257 28 q 582 121 489 28 q 653 215 621 160 l 653 632 z "},"e":{"ha":788,"x_min":72,"x_max":725,"o":"m 617 97 q 651 125 639 114 q 669 133 663 136 q 687 117 676 129 q 681 92 697 106 q 565 17 631 49 q 399 -14 500 -14 q 162 88 251 -14 q 72 347 72 189 q 162 607 72 506 q 397 708 251 708 q 633 617 542 708 q 725 396 725 525 l 725 375 q 683 333 725 333 l 136 333 q 115 313 113 333 q 198 110 124 192 q 402 28 272 28 q 617 97 532 28 m 117 392 q 136 375 117 375 l 663 375 q 683 396 683 375 q 602 587 683 507 q 397 667 521 667 q 194 579 272 667 q 117 392 117 492 z "},"f":{"ha":575,"x_min":50,"x_max":600,"o":"m 411 986 q 513 964 469 986 q 578 919 556 942 q 600 889 600 897 q 589 871 600 881 q 559 878 578 860 q 502 921 540 897 q 411 944 464 944 q 277 890 324 944 q 231 729 231 835 l 231 715 q 251 694 231 694 l 474 694 q 494 674 494 694 q 474 653 494 653 l 251 653 q 231 632 231 653 l 231 63 q 251 42 231 42 l 363 42 q 383 21 383 42 q 363 0 383 0 l 71 0 q 50 21 50 0 q 71 42 50 42 l 168 42 q 189 63 189 42 l 189 632 q 168 653 189 653 l 71 653 q 50 674 50 653 q 71 694 50 694 l 168 694 q 189 715 189 694 l 189 729 q 246 920 189 854 q 411 986 303 986 z "},"g":{"ha":840,"x_min":35,"x_max":826,"o":"m 715 -76 q 396 97 715 97 q 76 -76 76 97 q 396 -250 76 -250 q 700 -144 647 -250 q 715 -76 717 -112 m 396 264 q 598 317 536 264 q 660 465 660 371 q 598 613 660 558 q 396 667 536 667 q 194 613 256 667 q 132 465 132 558 q 194 317 132 371 q 396 264 256 264 m 111 193 q 222 139 111 139 l 396 139 q 738 11 675 139 q 757 -76 757 -28 q 564 -275 758 -231 q 396 -292 494 -292 q 54 -164 117 -292 q 35 -76 35 -125 q 62 17 35 -29 q 139 88 89 63 q 149 99 149 92 q 131 113 149 107 q 92 142 113 119 q 69 197 69 164 q 143 283 69 251 q 142 315 161 293 q 91 473 92 371 q 167 642 90 575 q 385 708 244 708 q 604 657 525 708 q 715 701 649 701 l 806 701 q 826 681 826 701 l 826 521 q 806 500 826 500 q 785 521 785 500 l 785 646 q 764 667 785 667 l 715 667 q 650 649 686 667 q 649 618 633 632 q 701 456 701 556 q 624 289 701 356 q 408 222 547 222 q 200 267 269 222 q 135 240 160 256 q 111 193 111 225 z "},"h":{"ha":904,"x_min":26,"x_max":888,"o":"m 47 42 l 144 42 q 165 63 165 42 l 165 910 q 144 931 165 931 l 47 931 q 26 951 26 931 q 47 972 26 972 l 186 972 q 207 951 207 972 l 207 596 q 213 576 207 582 q 229 582 218 571 q 474 708 342 708 q 677 637 606 708 q 749 431 749 565 l 749 63 q 769 42 749 42 l 867 42 q 888 21 888 42 q 867 0 888 0 l 603 0 q 582 21 582 0 q 603 42 582 42 l 686 42 q 707 63 707 42 l 707 431 q 646 608 707 549 q 479 667 585 667 q 279 572 374 667 q 207 479 239 531 l 207 63 q 228 42 207 42 l 311 42 q 332 21 332 42 q 311 0 332 0 l 47 0 q 26 21 26 0 q 47 42 26 42 z "},"i":{"ha":397,"x_min":51,"x_max":371,"o":"m 72 0 q 51 21 51 0 q 72 42 51 42 l 169 42 q 190 63 190 42 l 190 632 q 169 653 190 653 l 72 653 q 51 674 51 653 q 72 694 51 694 l 211 694 q 232 674 232 694 l 232 63 q 253 42 232 42 l 350 42 q 371 21 371 42 q 350 0 371 0 l 72 0 m 165 822 q 157 830 165 822 q 149 861 149 838 q 165 901 149 885 q 204 917 181 917 q 244 901 228 917 q 260 861 260 885 q 244 822 260 838 q 204 806 228 806 q 165 822 181 806 z "},"j":{"ha":340,"x_min":-189,"x_max":235,"o":"m 139 821 q 124 861 124 838 q 140 901 124 885 q 179 917 156 917 q 219 901 203 917 q 235 861 235 885 q 219 822 235 838 q 179 806 203 806 q 139 821 156 806 m 0 -250 q 39 -250 0 -250 q 122 -199 78 -250 q 165 -49 165 -149 l 165 632 q 144 653 165 653 l 47 653 q 26 674 26 653 q 47 694 26 694 l 186 694 q 207 674 207 694 l 207 -49 q 152 -229 207 -167 q -7 -292 97 -292 q -179 -212 -111 -292 q -189 -194 -189 -203 q -182 -181 -189 -186 q -149 -185 -168 -167 q 0 -250 -78 -250 z "},"k":{"ha":807,"x_min":26,"x_max":790,"o":"m 47 42 l 144 42 q 165 63 165 42 l 165 910 q 144 931 165 931 l 47 931 q 26 951 26 931 q 47 972 26 972 l 186 972 q 207 951 207 972 l 207 268 l 540 632 q 547 646 549 639 q 533 653 544 653 l 456 653 q 435 674 435 653 q 456 694 435 694 l 728 694 q 749 674 749 694 q 728 653 749 653 l 639 653 q 603 632 624 653 l 394 406 l 644 63 q 679 42 663 42 l 769 42 q 790 21 790 42 q 769 0 790 0 l 506 0 q 485 21 485 0 q 506 42 485 42 l 582 42 q 589 63 607 42 l 364 372 l 207 200 l 207 63 q 228 42 207 42 l 311 42 q 332 21 332 42 q 311 0 332 0 l 47 0 q 26 21 26 0 q 47 42 26 42 z "},"l":{"ha":372,"x_min":26,"x_max":346,"o":"m 47 0 q 26 21 26 0 q 47 42 26 42 l 144 42 q 165 63 165 42 l 165 910 q 144 931 165 931 l 47 931 q 26 951 26 931 q 47 972 26 972 l 186 972 q 207 951 207 972 l 207 63 q 228 42 207 42 l 325 42 q 346 21 346 42 q 325 0 346 0 l 47 0 z "},"m":{"ha":1332,"x_min":50,"x_max":1314,"o":"m 71 42 l 168 42 q 189 63 189 42 l 189 632 q 168 653 189 653 l 71 653 q 50 674 50 653 q 71 694 50 694 l 210 694 q 231 674 231 694 l 231 596 q 253 582 231 560 q 467 708 361 708 q 607 663 547 708 q 690 531 667 617 q 757 619 718 579 q 943 708 843 708 q 1109 635 1043 708 q 1175 431 1175 563 l 1175 63 q 1196 42 1175 42 l 1293 42 q 1314 21 1314 42 q 1293 0 1314 0 l 1029 0 q 1008 21 1008 0 q 1029 42 1008 42 l 1113 42 q 1133 63 1133 42 l 1133 431 q 1078 606 1133 544 q 938 667 1022 667 q 767 569 853 667 q 700 472 728 525 q 703 431 703 442 l 703 63 q 724 42 703 42 l 807 42 q 828 21 828 42 q 807 0 828 0 l 557 0 q 536 21 536 0 q 557 42 536 42 l 640 42 q 661 63 661 42 l 661 431 q 606 606 661 544 q 466 667 550 667 q 299 572 382 667 q 231 479 263 532 l 231 63 q 251 42 231 42 l 335 42 q 356 21 356 42 q 335 0 356 0 l 71 0 q 50 21 50 0 q 71 42 50 42 z "},"n":{"ha":928,"x_min":50,"x_max":911,"o":"m 71 42 l 168 42 q 189 63 189 42 l 189 632 q 168 653 189 653 l 71 653 q 50 674 50 653 q 71 694 50 694 l 210 694 q 231 674 231 694 l 231 596 q 236 576 231 582 q 253 582 242 571 q 497 708 365 708 q 701 637 629 708 q 772 431 772 565 l 772 63 q 793 42 772 42 l 890 42 q 911 21 911 42 q 890 0 911 0 l 626 0 q 606 21 606 0 q 626 42 606 42 l 710 42 q 731 63 731 42 l 731 431 q 669 608 731 549 q 503 667 608 667 q 303 572 397 667 q 231 479 261 531 l 231 63 q 251 42 231 42 l 335 42 q 356 21 356 42 q 335 0 356 0 l 71 0 q 50 21 50 0 q 71 42 50 42 z "},"o":{"ha":822,"x_min":71,"x_max":751,"o":"m 165 86 q 118 136 165 86 q 71 347 71 186 q 165 608 71 508 q 411 708 260 708 q 657 608 563 708 q 751 347 751 508 q 657 86 751 186 q 411 -14 563 -14 q 165 86 260 -14 m 411 667 q 344 667 411 667 q 194 579 276 667 q 113 347 113 492 q 194 115 113 201 q 411 28 275 28 q 628 115 547 28 q 710 347 710 201 q 628 579 710 492 q 411 667 546 667 z "},"p":{"ha":864,"x_min":26,"x_max":790,"o":"m 415 42 q 662 119 575 42 q 749 349 749 197 q 676 583 749 500 q 488 667 603 667 q 278 572 372 667 q 207 479 239 533 l 207 63 q 228 42 207 42 l 415 42 m 228 0 q 207 -21 207 0 l 207 -215 q 228 -236 207 -236 l 339 -236 q 360 -257 360 -236 q 339 -278 360 -278 l 47 -278 q 26 -257 26 -278 q 47 -236 26 -236 l 144 -236 q 165 -215 165 -236 l 165 632 q 144 653 165 653 l 47 653 q 26 674 26 653 q 47 694 26 694 l 186 694 q 207 674 207 694 l 207 596 q 213 576 207 582 q 229 582 218 571 q 331 667 264 626 q 485 708 397 708 q 707 610 624 708 q 790 347 790 513 q 690 90 790 182 q 415 0 590 0 l 228 0 z "},"q":{"ha":850,"x_min":74,"x_max":838,"o":"m 657 479 q 586 572 631 528 q 376 667 492 667 q 188 583 261 667 q 115 348 115 499 q 203 119 115 197 q 449 42 290 42 l 636 42 q 657 63 657 42 l 657 479 m 657 -21 q 636 0 657 0 l 449 0 q 174 90 272 0 q 74 347 74 181 q 157 610 74 513 q 379 708 240 708 q 533 667 467 708 q 635 582 599 631 q 651 576 646 571 q 657 596 657 582 l 657 674 q 678 694 657 694 q 699 674 699 694 l 699 -215 q 719 -236 699 -236 l 817 -236 q 838 -257 838 -236 q 817 -278 838 -278 l 525 -278 q 504 -257 504 -278 q 525 -236 504 -236 l 636 -236 q 657 -215 657 -236 l 657 -21 z "},"r":{"ha":704,"x_min":50,"x_max":667,"o":"m 578 667 q 286 529 403 667 q 231 451 253 490 l 231 63 q 251 42 231 42 l 363 42 q 383 21 383 42 q 363 0 383 0 l 71 0 q 50 21 50 0 q 71 42 50 42 l 168 42 q 189 63 189 42 l 189 632 q 168 653 189 653 l 71 653 q 50 674 50 653 q 71 694 50 694 l 210 694 q 231 674 231 694 l 231 564 q 260 563 231 529 q 394 665 311 621 q 578 708 476 708 l 646 708 q 667 688 667 708 l 667 514 q 646 493 667 493 q 625 514 625 493 l 625 646 q 604 667 625 667 l 578 667 z "},"s":{"ha":769,"x_min":83,"x_max":694,"o":"m 403 28 q 588 70 524 28 q 653 181 653 113 q 521 303 653 272 q 374 329 460 317 q 250 353 289 342 q 125 415 167 375 q 83 527 83 454 q 158 654 83 600 q 365 708 232 708 q 603 604 499 708 q 620 599 615 590 q 625 618 625 607 l 625 674 q 646 694 625 694 q 667 674 667 694 l 667 451 q 646 431 667 431 q 625 451 625 431 l 625 521 q 472 644 565 600 q 363 667 424 667 q 187 626 249 667 q 125 522 125 585 q 178 426 125 460 q 342 375 232 392 q 438 360 389 367 q 525 344 486 353 q 650 289 606 326 q 694 174 694 251 q 622 42 694 97 q 403 -14 549 -14 q 192 53 289 -14 q 149 88 164 72 q 129 96 133 104 q 125 76 125 88 l 125 21 q 104 0 125 0 q 83 21 83 0 l 83 243 q 104 264 83 264 q 125 243 125 264 l 125 174 q 281 50 182 93 q 403 28 332 28 z "},"t":{"ha":560,"x_min":21,"x_max":558,"o":"m 521 97 q 546 100 535 111 q 557 82 557 89 q 547 64 558 75 q 481 14 514 31 q 382 -15 394 -15 q 368 -14 369 -14 q 215 49 271 -14 q 160 229 160 111 l 160 632 q 139 653 160 653 l 42 653 q 21 674 21 653 q 42 694 21 694 l 139 694 q 160 715 160 694 l 160 951 q 181 972 160 972 q 201 951 201 972 l 201 715 q 222 694 201 694 l 458 694 q 479 674 479 694 q 458 653 479 653 l 222 653 q 201 632 201 653 l 201 229 q 246 78 201 129 q 369 28 290 28 q 521 97 447 28 z "},"u":{"ha":903,"x_min":15,"x_max":876,"o":"m 36 694 l 175 694 q 196 674 196 694 l 196 264 q 257 87 196 146 q 424 28 318 28 q 622 121 529 28 q 696 215 664 164 l 696 632 q 675 653 696 653 l 578 653 q 557 674 557 653 q 578 694 557 694 l 717 694 q 738 674 738 694 l 738 63 q 758 42 738 42 l 856 42 q 876 21 876 42 q 856 0 876 0 l 717 0 q 696 21 696 0 l 696 99 q 690 118 696 113 q 674 113 685 124 q 429 -14 561 -14 q 226 58 297 -14 q 154 264 154 129 l 154 632 q 133 653 154 653 l 36 653 q 15 674 15 653 q 36 694 15 694 z "},"v":{"ha":867,"x_min":-1,"x_max":868,"o":"m 19 694 l 283 694 q 304 674 304 694 q 283 653 304 653 l 197 653 q 183 632 172 653 l 425 67 q 433 58 428 58 q 442 67 439 58 l 683 632 q 669 653 694 653 l 583 653 q 563 674 563 653 q 583 694 563 694 l 847 694 q 868 674 868 694 q 847 653 868 653 l 757 653 q 729 632 739 653 l 461 7 q 433 -14 450 -14 q 406 7 417 -14 l 138 632 q 110 653 128 653 l 19 653 q -1 674 -1 653 q 19 694 -1 694 z "},"w":{"ha":1200,"x_min":-1,"x_max":1201,"o":"m 19 694 l 283 694 q 304 674 304 694 q 283 653 304 653 l 200 653 q 186 632 175 653 l 374 100 q 382 92 376 92 q 390 100 388 92 l 572 674 q 600 694 578 694 q 628 674 622 694 l 810 100 q 818 92 813 92 q 826 100 824 92 l 1014 632 q 1000 653 1025 653 l 917 653 q 896 674 896 653 q 917 694 896 694 l 1181 694 q 1201 674 1201 694 q 1181 653 1201 653 l 1090 653 q 1063 632 1069 653 l 842 7 q 818 -14 836 -14 q 794 7 800 -14 l 614 576 q 600 588 611 588 q 586 576 589 588 l 406 7 q 382 -14 400 -14 q 358 7 364 -14 l 138 632 q 110 653 131 653 l 19 653 q -1 674 -1 653 q 19 694 -1 694 z "},"x":{"ha":804,"x_min":31,"x_max":774,"o":"m 51 42 l 135 42 q 169 63 151 42 l 368 339 q 368 364 376 351 l 176 632 q 142 653 164 653 l 58 653 q 38 674 38 653 q 58 694 38 694 l 322 694 q 343 674 343 694 q 322 653 343 653 l 239 653 q 223 647 228 653 q 225 632 218 640 l 392 400 q 411 400 401 386 l 579 632 q 581 647 586 640 q 565 653 576 653 l 482 653 q 461 674 461 653 q 482 694 461 694 l 746 694 q 767 674 767 694 q 746 653 767 653 l 663 653 q 628 632 640 653 l 436 364 q 436 339 428 351 l 635 63 q 669 42 653 42 l 753 42 q 774 21 774 42 q 753 0 774 0 l 489 0 q 468 21 468 0 q 489 42 468 42 l 572 42 q 588 48 583 42 q 586 63 593 54 l 411 304 q 392 304 401 318 l 218 63 q 216 48 211 54 q 232 42 221 42 l 315 42 q 336 21 336 42 q 315 0 336 0 l 51 0 q 31 21 31 0 q 51 42 31 42 z "},"y":{"ha":857,"x_min":-1,"x_max":858,"o":"m 366 -224 q 348 -243 366 -224 q 298 -277 331 -262 q 226 -292 265 -292 q 117 -267 161 -292 q 49 -212 72 -243 q 46 -181 32 -196 q 75 -181 60 -167 q 134 -227 99 -204 q 228 -250 169 -250 q 329 -202 288 -250 q 411 -49 371 -154 l 425 -12 q 425 21 431 6 l 138 632 q 110 653 126 653 l 19 653 q -1 674 -1 653 q 19 694 -1 694 l 283 694 q 304 674 304 694 q 283 653 304 653 l 197 653 q 183 632 172 653 l 446 83 q 461 83 453 64 l 674 632 q 660 653 683 653 l 574 653 q 553 674 553 653 q 574 694 553 694 l 838 694 q 858 674 858 694 q 838 653 858 653 l 747 653 q 719 632 729 653 l 456 -49 q 366 -224 401 -185 z "},"z":{"ha":747,"x_min":68,"x_max":678,"o":"m 68 24 q 85 56 68 36 l 596 631 q 600 645 604 638 q 581 653 596 653 l 139 653 q 118 632 118 653 l 118 500 q 97 479 118 479 q 76 500 76 479 l 76 674 q 97 694 76 694 l 657 694 q 678 671 678 694 q 661 639 678 658 l 150 64 q 146 49 142 57 q 165 42 150 42 l 608 42 q 629 63 629 42 l 629 194 q 650 215 629 215 q 671 194 671 215 l 671 21 q 650 0 671 0 l 89 0 q 68 24 68 0 z "},"{":{"ha":450,"x_min":29,"x_max":418,"o":"m 50 410 q 29 431 29 410 q 50 451 29 451 l 64 451 q 196 590 196 454 l 196 903 q 244 1035 196 986 q 376 1083 293 1083 l 397 1083 q 418 1063 418 1083 q 397 1042 418 1042 l 376 1042 q 238 903 238 1042 l 238 590 q 140 431 238 468 q 238 271 238 393 l 238 -42 q 376 -181 238 -181 l 397 -181 q 418 -201 418 -181 q 397 -222 418 -222 l 376 -222 q 244 -174 293 -222 q 196 -42 196 -125 l 196 271 q 64 410 196 406 l 50 410 z "},"|":{"ha":342,"x_min":150,"x_max":192,"o":"m 150 -257 l 150 951 q 171 972 150 972 q 192 951 192 972 l 192 -257 q 171 -278 192 -278 q 150 -257 150 -278 z "},"}":{"ha":450,"x_min":32,"x_max":421,"o":"m 53 -222 q 32 -201 32 -222 q 53 -181 32 -181 l 74 -181 q 213 -42 213 -181 l 213 271 q 310 431 213 393 q 213 590 213 468 l 213 903 q 74 1042 213 1042 l 53 1042 q 32 1063 32 1042 q 53 1083 32 1083 l 74 1083 q 206 1035 157 1083 q 254 903 254 986 l 254 590 q 386 451 254 454 l 400 451 q 421 431 421 451 q 400 410 421 410 l 386 410 q 254 271 254 406 l 254 -42 q 206 -174 254 -125 q 74 -222 157 -222 l 53 -222 z "},"~":{"ha":728,"x_min":108,"x_max":622,"o":"m 108 389 q 247 528 108 528 q 317 507 283 528 q 372 461 350 486 q 483 396 446 401 q 581 493 581 396 q 601 514 581 514 q 622 493 622 514 q 483 354 622 354 q 414 375 447 354 q 358 419 381 394 q 247 486 300 486 q 150 389 150 486 q 129 368 150 368 q 108 389 108 368 z "}," ":{"ha":389,"x_min":0,"x_max":0,"o":""},"¡":{"ha":333,"x_min":97,"x_max":236,"o":"m 116 588 q 107 598 116 588 q 97 639 97 607 q 116 690 97 671 q 167 708 135 708 q 217 690 199 708 q 236 639 236 671 q 217 588 236 607 q 167 569 199 569 q 116 588 135 569 m 146 -257 l 146 438 q 167 458 146 458 q 188 438 188 458 l 188 -257 q 167 -278 188 -278 q 146 -257 146 -278 z "},"¢":{"ha":803,"x_min":79,"x_max":697,"o":"m 378 -12 q 165 92 250 -4 q 79 347 79 188 q 166 607 79 507 q 378 708 253 707 l 378 785 q 399 806 378 806 q 419 785 419 806 l 419 707 q 626 604 533 694 q 649 618 649 585 l 649 674 q 669 694 649 694 q 690 674 690 694 l 690 451 q 669 431 690 431 q 649 451 649 431 l 649 521 q 419 664 550 649 l 419 28 q 625 97 544 32 q 657 125 644 114 q 676 133 669 136 q 690 121 683 129 q 697 106 697 113 q 685 88 697 100 q 419 -14 572 -11 l 419 -90 q 399 -111 419 -111 q 378 -90 378 -111 l 378 -12 m 196 578 q 121 344 121 488 q 197 119 121 201 q 378 28 272 36 l 378 667 q 196 578 271 663 z "},"£":{"ha":803,"x_min":50,"x_max":751,"o":"m 71 0 q 50 21 50 0 q 71 42 50 42 q 181 93 138 42 q 224 243 224 144 l 224 451 q 203 472 224 472 l 106 472 q 85 493 85 472 q 106 514 85 514 l 203 514 q 224 535 224 514 l 224 729 q 279 919 224 853 q 431 986 336 986 q 583 926 525 986 q 640 771 640 867 q 619 750 640 750 q 599 771 599 750 q 553 897 599 850 q 431 944 506 944 q 310 890 356 944 q 265 729 265 835 l 265 535 q 286 514 265 514 l 453 514 q 474 493 474 514 q 453 472 474 472 l 286 472 q 265 451 265 472 l 265 243 q 189 42 265 103 l 557 42 q 665 86 621 42 q 710 201 710 131 q 731 222 710 222 q 751 201 751 222 q 696 57 751 114 q 557 0 640 0 l 71 0 z "},"¤":{"ha":907,"x_min":90,"x_max":854,"o":"m 111 42 l 208 42 q 229 63 229 42 l 229 250 q 208 271 229 271 l 111 271 q 90 292 90 271 q 111 313 90 313 l 208 313 q 229 333 229 313 l 229 396 q 208 417 229 417 l 111 417 q 90 438 90 417 q 111 458 90 458 l 208 458 q 229 479 229 458 l 229 910 q 208 931 229 931 l 111 931 q 90 951 90 931 q 111 972 90 972 l 576 972 q 783 899 711 972 q 854 694 854 826 q 783 490 854 563 q 576 417 711 417 l 292 417 q 271 396 271 417 l 271 333 q 292 313 271 313 l 681 313 q 701 292 701 313 q 681 271 701 271 l 292 271 q 271 250 271 271 l 271 63 q 292 42 271 42 l 403 42 q 424 21 424 42 q 403 0 424 0 l 111 0 q 90 21 90 0 q 111 42 90 42 m 271 479 q 292 458 271 458 l 576 458 q 752 519 692 458 q 813 694 813 579 q 752 870 813 810 q 576 931 692 931 l 292 931 q 271 910 271 931 l 271 479 z "},"¥":{"ha":976,"x_min":39,"x_max":938,"o":"m 60 972 l 324 972 q 344 951 344 972 q 324 931 344 931 l 240 931 q 225 924 229 931 q 226 910 221 918 l 478 471 q 497 471 488 457 l 750 910 q 751 924 756 918 q 736 931 747 931 l 653 931 q 632 951 632 931 q 653 972 632 972 l 917 972 q 938 951 938 972 q 917 931 938 931 l 833 931 q 799 910 811 931 l 531 444 q 544 424 519 424 l 704 424 q 725 403 725 424 q 704 382 725 382 l 531 382 q 510 361 510 382 l 510 278 q 531 257 510 257 l 704 257 q 725 236 725 257 q 704 215 725 215 l 531 215 q 510 194 510 215 l 510 63 q 531 42 510 42 l 628 42 q 649 21 649 42 q 628 0 649 0 l 350 0 q 329 21 329 0 q 350 42 329 42 l 447 42 q 468 63 468 42 l 468 194 q 447 215 468 215 l 274 215 q 253 236 253 215 q 274 257 253 257 l 447 257 q 468 278 468 257 l 468 361 q 447 382 468 382 l 274 382 q 253 403 253 382 q 274 424 253 424 l 433 424 q 446 444 456 424 l 178 910 q 143 931 165 931 l 60 931 q 39 951 39 931 q 60 972 39 972 z "},"¦":{"ha":356,"x_min":157,"x_max":199,"o":"m 157 229 q 178 250 157 250 q 199 229 199 250 l 199 -257 q 178 -278 199 -278 q 157 -257 157 -278 l 157 229 m 157 465 l 157 951 q 178 972 157 972 q 199 951 199 972 l 199 465 q 178 444 199 444 q 157 465 157 444 z "},"§":{"ha":808,"x_min":88,"x_max":721,"o":"m 457 167 q 625 211 571 167 q 679 311 679 258 q 601 449 679 407 q 488 492 561 472 q 393 517 414 511 q 351 528 372 522 q 185 484 242 528 q 129 375 129 440 q 207 246 129 288 q 321 203 247 222 q 415 178 394 183 q 457 167 436 172 m 713 -69 q 713 -111 713 -69 q 635 -215 713 -153 q 419 -278 557 -278 q 175 -225 281 -278 q 128 -198 144 -211 q 124 -168 113 -185 q 153 -164 136 -151 q 259 -214 188 -192 q 407 -236 331 -236 q 606 -185 542 -236 q 671 -64 671 -133 q 630 40 671 6 q 525 97 589 74 q 385 140 461 121 q 242 184 308 158 q 132 253 176 210 q 88 367 88 297 q 126 485 88 436 q 235 554 165 535 q 242 561 242 557 q 222 572 242 564 q 131 638 167 594 q 96 739 96 681 q 174 910 96 849 q 390 972 251 972 q 632 919 528 972 q 678 892 661 906 q 684 863 696 879 q 656 858 672 846 q 549 908 621 886 q 401 931 478 931 q 201 879 265 931 q 138 758 138 828 q 178 655 138 689 q 283 597 219 621 q 424 555 347 574 q 550 517 500 536 q 680 437 639 482 q 721 325 721 392 q 681 209 721 258 q 574 140 642 160 q 567 133 567 138 q 585 122 567 129 q 631 97 604 114 q 674 61 656 83 q 713 -69 713 15 z "},"¨":{"ha":333,"x_min":0,"x_max":333,"o":"m 16 794 q 8 802 16 794 q 0 833 0 810 q 16 873 0 857 q 56 889 32 889 q 95 873 79 889 q 111 833 111 857 q 95 794 111 810 q 56 778 79 778 q 16 794 32 778 m 238 794 q 230 802 238 794 q 222 833 222 810 q 238 873 222 857 q 278 889 254 889 q 317 873 301 889 q 333 833 333 857 q 317 794 333 810 q 278 778 301 778 q 238 794 254 778 z "},"©":{"ha":1219,"x_min":75,"x_max":1144,"o":"m 230 99 q 152 177 230 99 q 75 486 75 254 q 230 873 75 718 q 610 1028 385 1028 q 990 873 835 1028 q 1144 486 1144 718 q 990 99 1144 254 q 610 -56 835 -56 q 230 99 385 -56 m 256 846 q 186 776 256 846 q 117 486 117 706 q 256 126 117 267 q 610 -14 396 -14 q 963 126 824 -14 q 1103 486 1103 267 q 963 846 1103 706 q 610 986 824 986 q 256 846 396 986 m 617 153 q 400 244 482 153 q 318 485 318 335 q 396 726 318 636 q 590 818 474 818 q 803 722 707 818 q 825 736 825 706 l 825 792 q 846 813 825 813 q 867 792 867 813 l 867 583 q 846 563 867 563 q 825 583 825 563 l 825 639 q 757 708 800 669 q 596 778 671 778 q 426 699 493 778 q 360 485 360 619 q 431 273 360 351 q 617 194 501 194 q 851 335 765 194 q 878 338 863 350 q 888 324 888 332 q 881 306 888 315 q 617 153 783 153 z "},"ª":{"ha":583,"x_min":83,"x_max":486,"o":"m 375 597 q 240 535 313 535 q 126 570 168 535 q 83 668 83 606 q 126 768 83 731 q 250 806 168 806 l 354 806 q 375 826 375 806 l 375 832 q 264 938 375 938 q 142 886 190 938 q 113 886 128 872 q 113 915 97 900 q 176 961 135 943 q 264 979 218 979 q 376 938 336 979 q 417 832 417 897 l 417 604 q 438 583 417 583 l 465 583 q 486 563 486 583 q 465 542 486 542 l 396 542 q 375 563 375 542 l 375 597 m 375 743 q 354 764 375 764 l 250 764 q 157 737 189 764 q 125 669 125 710 q 156 602 125 628 q 238 576 188 576 q 335 614 288 576 q 375 653 360 633 l 375 743 z "},"«":{"ha":693,"x_min":54,"x_max":596,"o":"m 65 368 l 386 688 q 400 694 393 694 q 419 683 408 694 q 415 658 431 672 l 115 358 q 115 333 103 346 l 413 36 q 417 11 428 22 q 398 0 406 0 q 383 7 390 0 l 67 322 q 54 346 54 335 q 65 368 54 357 m 301 368 l 560 625 q 574 632 567 632 q 589 625 582 632 q 596 610 596 618 q 589 596 596 603 l 351 358 q 351 333 339 346 l 586 99 q 593 84 593 92 q 586 69 593 76 q 572 63 579 63 q 557 69 564 63 l 303 322 q 290 346 290 335 q 301 368 290 357 z "},"¬":{"ha":822,"x_min":128,"x_max":711,"o":"m 149 438 q 128 458 128 438 q 149 479 128 479 l 690 479 q 711 458 711 479 l 711 313 q 690 292 711 292 q 669 313 669 292 l 669 417 q 649 438 669 438 l 149 438 z "},"­":{"ha":794,"x_min":106,"x_max":689,"o":"m 126 424 q 106 444 106 424 q 126 465 106 465 l 668 465 q 689 444 689 465 q 668 424 689 424 l 126 424 z "},"®":{"ha":1219,"x_min":75,"x_max":1144,"o":"m 229 99 q 75 486 75 254 q 230 873 75 718 q 610 1028 385 1028 q 990 873 835 1028 q 1144 486 1144 718 q 990 99 1144 254 q 610 -56 835 -56 q 229 99 385 -56 m 963 846 q 893 916 963 846 q 610 986 824 986 q 256 846 396 986 q 117 486 117 706 q 256 126 117 267 q 610 -14 396 -14 q 963 126 824 -14 q 1103 486 1103 267 q 963 846 1103 706 m 471 521 q 492 500 471 500 l 672 500 q 790 538 747 500 q 832 632 832 576 q 790 726 832 688 q 672 764 747 764 l 492 764 q 471 743 471 764 l 471 521 m 471 438 l 471 215 q 492 194 471 194 l 533 194 q 554 174 554 194 q 533 153 554 153 l 339 153 q 318 174 318 153 q 339 194 318 194 l 408 194 q 429 215 429 194 l 429 743 q 408 764 429 764 l 339 764 q 318 785 318 764 q 339 806 318 806 l 672 806 q 819 757 765 806 q 874 632 874 708 q 819 507 874 556 q 672 458 765 458 q 656 452 661 458 q 658 438 651 446 l 803 215 q 838 194 821 194 l 900 194 q 921 174 921 194 q 900 153 921 153 l 699 153 q 678 174 678 153 q 699 194 678 194 l 744 194 q 751 215 769 194 l 593 458 l 492 458 q 471 438 471 458 z "},"°":{"ha":611,"x_min":76,"x_max":535,"o":"m 142 582 q 109 616 142 582 q 76 750 76 650 q 142 918 76 850 q 306 986 207 986 q 469 918 404 986 q 535 750 535 850 q 469 582 535 650 q 306 514 404 514 q 142 582 207 514 m 172 889 q 145 861 172 889 q 118 750 118 833 q 172 611 118 667 q 306 556 226 556 q 439 611 385 556 q 493 750 493 667 q 439 889 493 833 q 306 944 385 944 q 172 889 226 944 z "},"±":{"ha":710,"x_min":63,"x_max":646,"o":"m 83 118 q 63 139 63 118 q 83 160 63 160 l 625 160 q 646 139 646 160 q 625 118 646 118 l 83 118 m 83 424 q 63 444 63 424 q 83 465 63 465 l 306 465 q 326 486 326 465 l 326 715 q 347 736 326 736 q 368 715 368 736 l 368 486 q 389 465 368 465 l 625 465 q 646 444 646 465 q 625 424 646 424 l 389 424 q 368 403 368 424 l 368 229 q 347 208 368 208 q 326 229 326 208 l 326 403 q 306 424 326 424 l 83 424 z "},"²":{"ha":557,"x_min":97,"x_max":451,"o":"m 104 563 l 104 604 q 152 700 104 663 q 257 751 200 738 q 362 790 314 764 q 410 854 410 815 q 271 938 410 938 q 133 881 185 938 q 104 881 122 863 q 97 894 97 888 q 104 910 97 901 q 271 979 174 979 q 451 854 451 979 q 420 781 451 810 q 344 738 389 753 l 253 710 q 146 604 146 676 q 167 583 146 583 l 389 583 q 410 604 410 583 l 410 639 q 431 660 410 660 q 451 639 451 660 l 451 563 q 431 542 451 542 l 125 542 q 104 563 104 542 z "},"³":{"ha":529,"x_min":92,"x_max":440,"o":"m 99 604 q 92 619 92 611 q 103 636 92 625 q 132 628 114 647 q 188 592 150 608 q 267 576 226 576 q 399 653 399 576 q 369 719 399 694 q 288 743 340 743 l 197 743 q 176 764 176 744 q 197 783 176 783 l 288 783 q 385 861 385 783 q 260 938 385 939 q 131 886 179 938 q 106 883 117 872 q 94 901 94 894 q 101 915 93 908 q 169 960 124 942 q 278 979 214 979 q 384 947 342 979 q 426 854 426 915 q 357 764 426 793 q 440 653 440 733 q 397 566 440 597 q 285 535 353 535 q 169 556 217 535 q 99 604 122 576 z "},"´":{"ha":169,"x_min":0,"x_max":169,"o":"m 6 811 l 129 988 q 144 1000 136 1000 q 158 993 151 1000 q 169 981 169 988 q 164 965 169 974 l 39 788 q 24 779 32 779 q 8 785 17 779 q 0 797 0 790 q 6 811 0 804 z "},"µ":{"ha":956,"x_min":51,"x_max":913,"o":"m 72 694 l 211 694 q 232 674 232 694 l 232 251 q 294 84 232 140 q 464 28 357 28 q 663 125 571 28 q 732 222 700 165 l 732 632 q 711 653 732 653 l 614 653 q 593 674 593 653 q 614 694 593 694 l 753 694 q 774 674 774 694 l 774 63 q 794 42 774 42 l 892 42 q 913 21 913 42 q 892 0 913 0 l 753 0 q 732 21 732 0 l 732 99 q 710 113 732 132 q 468 -14 597 -14 q 232 97 301 -14 l 232 -257 q 211 -278 232 -278 q 190 -257 190 -278 l 190 632 q 169 653 190 653 l 72 653 q 51 674 51 653 q 72 694 51 694 z "},"¶":{"ha":1021,"x_min":51,"x_max":975,"o":"m 392 306 q 143 393 236 306 q 51 639 51 481 q 143 885 51 797 q 392 972 235 972 l 954 972 q 975 951 975 972 q 954 931 975 931 l 815 931 q 794 910 794 931 l 794 -257 q 774 -278 794 -278 q 753 -257 753 -278 l 753 910 q 732 931 753 931 l 538 931 q 517 910 517 931 l 517 -257 q 496 -278 517 -278 q 475 -257 475 -278 l 475 285 q 454 306 475 306 l 392 306 m 454 347 q 475 368 475 347 l 475 910 q 454 931 475 931 l 392 931 q 172 856 250 931 q 93 639 93 782 q 172 422 93 496 q 392 347 250 347 l 454 347 z "},"·":{"ha":350,"x_min":106,"x_max":244,"o":"m 124 435 q 115 445 124 435 q 106 486 106 454 q 124 537 106 518 q 175 556 143 556 q 226 537 207 556 q 244 486 244 518 q 226 435 244 454 q 175 417 207 417 q 124 435 143 417 z "},"¸":{"ha":160,"x_min":0,"x_max":160,"o":"m 21 -250 q 0 -229 0 -250 q 21 -208 0 -208 q 118 -153 118 -208 q 101 -113 118 -129 q 49 -97 83 -97 l 28 -97 q 7 -76 7 -97 l 7 0 q 28 21 7 21 q 49 0 49 21 l 49 -56 q 131 -83 100 -56 q 160 -153 160 -108 q 126 -224 160 -197 q 21 -250 92 -250 z "},"¹":{"ha":429,"x_min":81,"x_max":356,"o":"m 118 842 q 92 840 103 828 q 81 859 81 851 q 90 874 81 867 l 193 958 q 231 979 222 979 q 258 958 258 979 l 258 604 q 279 583 258 583 l 335 583 q 356 563 356 583 q 335 542 356 542 l 140 542 q 119 563 119 542 q 140 583 119 583 l 196 583 q 217 604 217 583 l 217 910 q 197 910 217 924 l 118 842 z "},"º":{"ha":550,"x_min":81,"x_max":469,"o":"m 135 595 q 108 625 135 595 q 81 757 81 656 q 135 919 81 858 q 275 979 190 979 q 415 919 360 979 q 469 757 469 858 q 415 595 469 656 q 275 535 360 535 q 135 595 190 535 m 164 890 q 143 867 164 890 q 122 757 122 843 q 164 624 122 671 q 275 576 206 576 q 386 624 344 576 q 428 757 428 671 q 386 890 428 843 q 275 938 344 938 q 164 890 206 938 z "},"»":{"ha":693,"x_min":96,"x_max":639,"o":"m 104 596 q 96 611 96 603 q 108 628 97 617 q 133 625 119 639 l 392 368 q 403 346 403 357 q 390 322 403 335 l 136 69 q 111 67 122 56 q 99 85 100 78 q 107 99 99 92 l 342 333 q 342 358 354 346 l 104 596 m 278 658 q 271 673 271 665 q 278 688 271 681 q 292 694 285 694 q 307 688 299 694 l 628 368 q 639 346 639 357 q 626 322 639 335 l 310 7 q 295 0 303 0 q 281 7 288 0 q 274 22 274 14 q 281 36 274 29 l 578 333 q 578 358 590 346 l 278 658 z "},"¼":{"ha":933,"x_min":61,"x_max":885,"o":"m 99 843 q 72 840 83 828 q 61 860 61 853 q 71 875 61 868 l 174 960 q 211 981 203 981 q 239 960 239 981 l 239 606 q 260 585 239 585 l 315 585 q 336 564 336 585 q 315 543 336 543 l 121 543 q 100 564 100 543 q 121 585 100 585 l 176 585 q 197 606 197 585 l 197 911 q 178 911 197 925 l 99 843 m 144 32 l 746 961 q 760 971 753 971 q 774 968 768 971 q 779 940 793 954 l 179 10 q 153 2 168 -6 q 139 17 139 10 q 144 32 139 25 m 478 122 l 478 129 q 482 139 478 135 q 586 262 551 199 q 621 424 621 325 q 642 444 621 444 q 663 424 663 444 q 633 263 663 333 q 558 153 603 192 l 739 153 q 760 174 760 153 l 760 321 q 781 342 760 342 q 801 321 801 342 l 801 174 q 822 153 801 153 l 864 153 q 885 132 885 153 q 864 111 885 111 l 822 111 q 801 90 801 111 l 801 14 q 781 -7 801 -7 q 760 14 760 -7 l 760 90 q 739 111 760 111 l 496 111 q 478 122 482 111 z "},"½":{"ha":936,"x_min":54,"x_max":868,"o":"m 92 843 q 66 840 78 828 q 54 860 54 853 q 64 875 54 868 l 167 960 q 204 981 196 981 q 232 960 232 981 l 232 606 q 253 585 232 585 l 308 585 q 329 564 329 585 q 308 543 329 543 l 114 543 q 93 564 93 543 q 114 585 93 585 l 169 585 q 190 606 190 585 l 190 911 q 171 911 190 925 l 92 843 m 138 32 l 739 961 q 753 971 746 971 q 767 968 761 971 q 772 940 786 954 l 172 10 q 158 0 165 0 q 141 5 150 0 q 132 17 132 10 q 138 32 132 25 m 521 21 l 521 63 q 569 158 521 121 q 674 209 617 196 q 778 248 731 222 q 826 313 826 274 q 688 396 826 396 q 550 339 601 396 q 521 339 539 321 q 514 353 514 346 q 521 368 514 361 q 688 438 590 438 q 868 313 868 438 q 837 240 868 268 q 761 197 806 211 l 671 168 q 563 63 563 135 q 583 42 563 42 l 806 42 q 826 63 826 42 l 826 97 q 847 118 826 118 q 868 97 868 118 l 868 21 q 847 0 868 0 l 542 0 q 521 21 521 0 z "},"¾":{"ha":981,"x_min":68,"x_max":933,"o":"m 76 604 q 69 619 69 613 q 79 636 68 625 q 106 633 90 647 q 166 593 128 610 q 244 576 204 576 q 376 653 376 576 q 347 719 376 694 q 265 743 318 743 l 175 743 q 154 764 154 744 q 175 783 154 783 l 265 783 q 363 861 363 783 q 238 938 363 939 q 108 886 157 938 q 82 883 93 872 q 72 901 71 894 q 79 915 72 908 q 147 960 101 942 q 256 979 192 979 q 362 947 319 979 q 404 854 404 915 q 335 764 404 793 q 418 653 418 733 q 374 566 418 597 q 263 535 331 535 q 147 556 194 535 q 76 604 100 576 m 193 32 l 794 961 q 810 971 801 971 q 822 968 818 971 q 828 940 842 954 l 228 10 q 201 3 215 -6 q 188 17 188 11 q 193 32 188 25 m 526 122 l 526 129 q 531 139 526 135 q 635 262 600 199 q 669 424 669 325 q 690 444 669 444 q 711 424 711 444 q 681 263 711 333 q 607 153 651 192 l 788 153 q 808 174 808 153 l 808 321 q 829 342 808 342 q 850 321 850 342 l 850 174 q 871 153 850 153 l 913 153 q 933 132 933 153 q 913 111 933 111 l 871 111 q 850 90 850 111 l 850 14 q 829 -7 850 -7 q 808 14 808 -7 l 808 90 q 788 111 808 111 l 544 111 q 526 122 531 111 z "},"¿":{"ha":739,"x_min":56,"x_max":694,"o":"m 115 142 q 174 196 142 171 l 236 244 q 294 294 268 269 q 354 438 354 353 q 375 458 354 458 q 396 438 396 458 q 365 315 396 367 q 292 229 335 263 l 203 165 q 97 -28 97 89 q 172 -183 97 -117 q 376 -250 247 -250 q 578 -187 504 -250 q 653 -14 653 -124 q 674 7 653 7 q 694 -14 694 7 q 610 -216 694 -140 q 376 -292 525 -292 q 141 -213 226 -292 q 56 -30 56 -135 q 115 142 56 75 m 325 589 q 306 639 306 608 q 325 689 306 669 q 375 708 344 708 q 425 689 406 708 q 444 639 444 669 q 425 589 444 608 q 375 569 406 569 q 325 589 344 569 z "},"À":{"ha":1006,"x_min":-14,"x_max":1019,"o":"m 357 1236 q 351 1251 351 1243 q 363 1264 351 1258 q 377 1271 369 1271 q 392 1258 385 1271 l 515 1082 q 521 1068 521 1075 q 511 1054 521 1061 q 495 1050 503 1050 q 482 1058 488 1050 l 357 1236 m 511 896 q 503 904 508 904 q 494 896 497 904 l 304 401 q 319 381 293 381 l 686 381 q 701 401 711 381 l 511 896 m 733 319 q 700 339 725 339 l 306 339 q 272 319 281 339 l 174 63 q 188 42 163 42 l 271 42 q 292 21 292 42 q 271 0 292 0 l 7 0 q -14 21 -14 0 q 7 42 -14 42 l 97 42 q 125 63 114 42 l 472 965 q 503 986 478 986 q 533 965 528 986 l 881 63 q 908 42 890 42 l 999 42 q 1019 21 1019 42 q 999 0 1019 0 l 735 0 q 714 21 714 0 q 735 42 714 42 l 818 42 q 832 63 842 42 l 733 319 z "},"Á":{"ha":1006,"x_min":-14,"x_max":1019,"o":"m 488 1082 l 611 1258 q 626 1271 618 1271 q 640 1264 633 1271 q 651 1251 651 1258 q 646 1236 651 1243 l 521 1058 q 506 1050 514 1050 q 492 1054 499 1050 q 482 1068 482 1061 q 488 1082 482 1075 m 511 896 q 503 904 508 904 q 494 896 497 904 l 304 401 q 319 381 293 381 l 686 381 q 701 401 711 381 l 511 896 m 733 319 q 700 339 725 339 l 306 339 q 272 319 281 339 l 174 63 q 188 42 163 42 l 271 42 q 292 21 292 42 q 271 0 292 0 l 7 0 q -14 21 -14 0 q 7 42 -14 42 l 97 42 q 125 63 114 42 l 472 965 q 503 986 478 986 q 533 965 528 986 l 881 63 q 908 42 890 42 l 999 42 q 1019 21 1019 42 q 999 0 1019 0 l 735 0 q 714 21 714 0 q 735 42 714 42 l 818 42 q 832 63 842 42 l 733 319 z "},"Â":{"ha":1006,"x_min":-14,"x_max":1019,"o":"m 329 1057 l 478 1208 q 501 1221 490 1221 q 524 1210 513 1221 l 676 1057 q 685 1042 685 1050 q 677 1028 685 1035 q 662 1021 669 1021 q 647 1028 654 1021 l 514 1160 q 489 1160 501 1172 l 358 1028 q 344 1021 351 1021 q 330 1028 338 1021 q 322 1042 322 1035 q 329 1057 322 1050 m 511 896 q 503 904 508 904 q 494 896 497 904 l 304 401 q 319 381 293 381 l 686 381 q 701 401 711 381 l 511 896 m 733 319 q 700 339 725 339 l 306 339 q 272 319 281 339 l 174 63 q 188 42 163 42 l 271 42 q 292 21 292 42 q 271 0 292 0 l 7 0 q -14 21 -14 0 q 7 42 -14 42 l 97 42 q 125 63 114 42 l 472 965 q 503 986 478 986 q 533 965 528 986 l 881 63 q 908 42 890 42 l 999 42 q 1019 21 1019 42 q 999 0 1019 0 l 735 0 q 714 21 714 0 q 735 42 714 42 l 818 42 q 832 63 842 42 l 733 319 z "},"Ã":{"ha":1006,"x_min":-14,"x_max":1019,"o":"m 329 1057 q 356 1149 329 1117 q 419 1182 383 1182 q 513 1130 483 1182 q 579 1078 542 1078 q 635 1161 635 1078 q 656 1182 635 1182 q 676 1161 676 1182 q 649 1068 676 1100 q 586 1036 622 1036 q 493 1088 522 1036 q 426 1140 464 1140 q 371 1057 371 1140 q 350 1036 371 1036 q 329 1057 329 1036 m 511 896 q 503 904 508 904 q 494 896 497 904 l 304 401 q 319 381 293 381 l 686 381 q 701 401 711 381 l 511 896 m 733 319 q 700 339 725 339 l 306 339 q 272 319 281 339 l 174 63 q 188 42 163 42 l 271 42 q 292 21 292 42 q 271 0 292 0 l 7 0 q -14 21 -14 0 q 7 42 -14 42 l 97 42 q 125 63 114 42 l 472 965 q 503 986 478 986 q 533 965 528 986 l 881 63 q 908 42 890 42 l 999 42 q 1019 21 1019 42 q 999 0 1019 0 l 735 0 q 714 21 714 0 q 735 42 714 42 l 818 42 q 832 63 842 42 l 733 319 z "},"Ä":{"ha":1006,"x_min":-14,"x_max":1019,"o":"m 351 1050 q 336 1090 336 1067 q 352 1130 336 1114 q 392 1146 368 1146 q 431 1130 415 1146 q 447 1090 447 1114 q 431 1051 447 1067 q 392 1035 415 1035 q 351 1050 368 1035 m 574 1050 q 558 1090 558 1067 q 574 1130 558 1114 q 614 1146 590 1146 q 653 1130 638 1146 q 669 1090 669 1114 q 653 1051 669 1067 q 614 1035 638 1035 q 574 1050 590 1035 m 511 896 q 503 904 508 904 q 494 896 497 904 l 304 401 q 319 381 293 381 l 686 381 q 701 401 711 381 l 511 896 m 733 319 q 700 339 725 339 l 306 339 q 272 319 281 339 l 174 63 q 188 42 163 42 l 271 42 q 292 21 292 42 q 271 0 292 0 l 7 0 q -14 21 -14 0 q 7 42 -14 42 l 97 42 q 125 63 114 42 l 472 965 q 503 986 478 986 q 533 965 528 986 l 881 63 q 908 42 890 42 l 999 42 q 1019 21 1019 42 q 999 0 1019 0 l 735 0 q 714 21 714 0 q 735 42 714 42 l 818 42 q 832 63 842 42 l 733 319 z "},"Å":{"ha":1007,"x_min":-14,"x_max":1019,"o":"m 733 319 q 700 339 725 339 l 306 339 q 272 319 281 339 l 174 63 q 188 42 163 42 l 271 42 q 292 21 292 42 q 271 0 292 0 l 7 0 q -14 21 -14 0 q 7 42 -14 42 l 97 42 q 125 63 114 42 l 467 950 q 393 1056 393 975 q 424 1135 393 1103 q 503 1167 454 1167 q 583 1135 551 1167 q 615 1061 615 1103 q 539 950 615 974 l 881 63 q 908 42 890 42 l 999 42 q 1019 21 1019 42 q 999 0 1019 0 l 735 0 q 714 21 714 0 q 735 42 714 42 l 818 42 q 832 63 842 42 l 733 319 m 511 896 q 503 904 508 904 q 494 896 497 904 l 304 401 q 301 390 301 396 q 319 381 301 381 l 686 381 q 704 392 704 381 q 701 401 704 396 l 511 896 m 571 1056 q 551 1106 571 1088 q 503 1125 531 1125 q 455 1106 475 1125 q 435 1056 435 1088 q 455 1005 435 1024 q 503 986 475 986 q 551 1005 531 986 q 571 1056 571 1024 z "},"Æ":{"ha":1339,"x_min":-33,"x_max":1265,"o":"m 689 354 q 668 375 689 375 l 350 375 q 317 356 325 375 l 154 63 q 168 42 143 42 l 251 42 q 272 21 272 42 q 251 0 272 0 l -12 0 q -33 21 -33 0 q -12 42 -33 42 l 78 42 q 106 63 94 42 l 594 944 q 631 972 607 972 l 1231 972 q 1251 951 1251 972 l 1251 757 q 1231 736 1251 736 q 1210 757 1210 736 l 1210 910 q 1189 931 1210 931 l 751 931 q 731 910 731 931 l 731 535 q 751 514 731 514 l 1064 514 q 1085 535 1085 514 l 1085 604 q 1106 625 1085 625 q 1126 604 1126 625 l 1126 382 q 1106 361 1126 361 q 1085 382 1085 361 l 1085 451 q 1064 472 1085 472 l 751 472 q 731 451 731 472 l 731 63 q 751 42 731 42 l 1203 42 q 1224 63 1224 42 l 1224 215 q 1244 236 1224 236 q 1265 215 1265 236 l 1265 21 q 1244 0 1265 0 l 585 0 q 564 21 564 0 q 585 42 564 42 l 668 42 q 689 63 689 42 l 689 354 m 689 910 q 668 931 689 931 l 653 931 q 625 910 635 931 l 363 438 q 360 426 360 432 q 378 417 360 417 l 668 417 q 689 438 689 417 l 689 910 z "},"Ç":{"ha":967,"x_min":82,"x_max":901,"o":"m 510 -208 q 607 -153 607 -208 q 590 -113 607 -129 q 538 -97 572 -97 l 517 -97 q 496 -76 496 -97 l 496 0 q 517 21 496 21 q 538 0 538 21 l 538 -56 q 619 -83 589 -56 q 649 -153 649 -110 q 615 -224 649 -197 q 510 -250 581 -250 q 489 -229 489 -250 q 510 -208 489 -208 m 82 486 q 210 128 82 269 q 545 -14 338 -14 q 894 125 753 -14 q 901 139 901 132 q 890 157 901 146 q 865 154 879 168 q 551 28 746 28 q 240 157 357 28 q 124 484 124 286 q 236 813 124 682 q 519 944 349 944 q 758 864 644 944 q 846 785 808 828 l 846 688 q 867 667 846 667 q 888 688 888 667 l 888 951 q 867 972 888 972 q 846 951 846 972 l 846 882 q 824 868 846 850 q 519 986 688 986 q 204 844 326 986 q 82 486 82 703 z "},"È":{"ha":853,"x_min":64,"x_max":779,"o":"m 85 0 q 64 21 64 0 q 85 42 64 42 l 182 42 q 203 63 203 42 l 203 910 q 182 931 203 931 l 85 931 q 64 951 64 931 q 85 972 64 972 l 744 972 q 765 951 765 972 l 765 757 q 744 736 765 736 q 724 757 724 736 l 724 910 q 703 931 724 931 l 265 931 q 244 910 244 931 l 244 535 q 265 514 244 514 l 578 514 q 599 535 599 514 l 599 604 q 619 625 599 625 q 640 604 640 625 l 640 382 q 619 361 640 361 q 599 382 599 361 l 599 451 q 578 472 599 472 l 265 472 q 244 451 244 472 l 244 63 q 265 42 244 42 l 717 42 q 738 63 738 42 l 738 215 q 758 236 738 236 q 779 215 779 236 l 779 21 q 758 0 779 0 l 85 0 m 328 1243 q 322 1258 322 1250 q 333 1271 322 1267 q 347 1278 339 1278 q 363 1265 356 1278 l 486 1089 q 492 1075 492 1082 q 482 1061 492 1068 q 467 1057 475 1057 q 453 1065 458 1057 l 328 1243 z "},"É":{"ha":853,"x_min":64,"x_max":779,"o":"m 85 0 q 64 21 64 0 q 85 42 64 42 l 182 42 q 203 63 203 42 l 203 910 q 182 931 203 931 l 85 931 q 64 951 64 931 q 85 972 64 972 l 744 972 q 765 951 765 972 l 765 757 q 744 736 765 736 q 724 757 724 736 l 724 910 q 703 931 724 931 l 265 931 q 244 910 244 931 l 244 535 q 265 514 244 514 l 578 514 q 599 535 599 514 l 599 604 q 619 625 599 625 q 640 604 640 625 l 640 382 q 619 361 640 361 q 599 382 599 361 l 599 451 q 578 472 599 472 l 265 472 q 244 451 244 472 l 244 63 q 265 42 244 42 l 717 42 q 738 63 738 42 l 738 215 q 758 236 738 236 q 779 215 779 236 l 779 21 q 758 0 779 0 l 85 0 m 411 1075 l 535 1251 q 550 1264 542 1264 q 564 1257 558 1264 q 575 1244 575 1253 q 569 1229 575 1236 l 444 1051 q 431 1043 439 1043 q 415 1047 422 1043 q 406 1061 406 1054 q 411 1075 406 1068 z "},"Ê":{"ha":853,"x_min":64,"x_max":779,"o":"m 85 0 q 64 21 64 0 q 85 42 64 42 l 182 42 q 203 63 203 42 l 203 910 q 182 931 203 931 l 85 931 q 64 951 64 931 q 85 972 64 972 l 744 972 q 765 951 765 972 l 765 757 q 744 736 765 736 q 724 757 724 736 l 724 910 q 703 931 724 931 l 265 931 q 244 910 244 931 l 244 535 q 265 514 244 514 l 578 514 q 599 535 599 514 l 599 604 q 619 625 599 625 q 640 604 640 625 l 640 382 q 619 361 640 361 q 599 382 599 361 l 599 451 q 578 472 599 472 l 265 472 q 244 451 244 472 l 244 63 q 265 42 244 42 l 717 42 q 738 63 738 42 l 738 215 q 758 236 738 236 q 779 215 779 236 l 779 21 q 758 0 779 0 l 85 0 m 276 1057 q 272 1057 276 1057 q 261 1064 268 1057 q 254 1078 254 1071 q 261 1093 254 1086 l 410 1244 q 433 1257 422 1257 q 456 1246 444 1257 l 608 1093 q 615 1078 615 1086 q 608 1064 615 1071 q 594 1057 601 1057 q 579 1064 586 1057 l 446 1196 q 421 1196 433 1208 l 290 1064 q 276 1057 283 1057 z "},"Ë":{"ha":853,"x_min":64,"x_max":779,"o":"m 85 0 q 64 21 64 0 q 85 42 64 42 l 182 42 q 203 63 203 42 l 203 910 q 182 931 203 931 l 85 931 q 64 951 64 931 q 85 972 64 972 l 744 972 q 765 951 765 972 l 765 757 q 744 736 765 736 q 724 757 724 736 l 724 910 q 703 931 724 931 l 265 931 q 244 910 244 931 l 244 535 q 265 514 244 514 l 578 514 q 599 535 599 514 l 599 604 q 619 625 599 625 q 640 604 640 625 l 640 382 q 619 361 640 361 q 599 382 599 361 l 599 451 q 578 472 599 472 l 265 472 q 244 451 244 472 l 244 63 q 265 42 244 42 l 717 42 q 738 63 738 42 l 738 215 q 758 236 738 236 q 779 215 779 236 l 779 21 q 758 0 779 0 l 85 0 m 298 1085 q 290 1093 298 1085 q 282 1125 282 1101 q 298 1165 282 1149 q 338 1181 314 1181 q 377 1165 361 1181 q 393 1125 393 1149 q 377 1085 393 1101 q 338 1069 361 1069 q 298 1085 314 1069 m 520 1085 q 512 1093 520 1085 q 504 1125 504 1101 q 520 1165 504 1149 q 560 1181 536 1181 q 599 1165 583 1181 q 615 1125 615 1149 q 599 1085 615 1101 q 560 1069 583 1069 q 520 1085 536 1069 z "},"Ì":{"ha":447,"x_min":64,"x_max":383,"o":"m 85 0 q 64 21 64 0 q 85 42 64 42 l 182 42 q 203 63 203 42 l 203 910 q 182 931 203 931 l 85 931 q 64 951 64 931 q 85 972 64 972 l 363 972 q 383 951 383 972 q 363 931 383 931 l 265 931 q 244 910 244 931 l 244 63 q 265 42 244 42 l 363 42 q 383 21 383 42 q 363 0 383 0 l 85 0 m 75 1229 q 69 1244 69 1236 q 81 1257 69 1253 q 94 1264 86 1264 q 110 1251 103 1264 l 233 1075 q 239 1061 239 1068 q 229 1047 239 1054 q 214 1043 222 1043 q 200 1051 206 1043 l 75 1229 z "},"Í":{"ha":447,"x_min":64,"x_max":383,"o":"m 85 0 q 64 21 64 0 q 85 42 64 42 l 182 42 q 203 63 203 42 l 203 910 q 182 931 203 931 l 85 931 q 64 951 64 931 q 85 972 64 972 l 363 972 q 383 951 383 972 q 363 931 383 931 l 265 931 q 244 910 244 931 l 244 63 q 265 42 244 42 l 363 42 q 383 21 383 42 q 363 0 383 0 l 85 0 m 200 1075 l 324 1251 q 339 1264 331 1264 q 353 1257 347 1264 q 364 1244 364 1253 q 358 1229 364 1236 l 233 1051 q 219 1043 228 1043 q 204 1047 211 1043 q 194 1061 194 1054 q 200 1075 194 1068 z "},"Î":{"ha":447,"x_min":43,"x_max":404,"o":"m 79 1064 q 53 1060 64 1050 q 43 1078 43 1071 q 50 1093 43 1086 l 199 1244 q 222 1257 211 1257 q 244 1246 233 1257 l 397 1093 q 404 1078 404 1086 q 394 1060 404 1071 q 368 1064 383 1050 l 235 1196 q 210 1196 222 1208 l 79 1064 m 85 0 q 64 21 64 0 q 85 42 64 42 l 182 42 q 203 63 203 42 l 203 910 q 182 931 203 931 l 85 931 q 64 951 64 931 q 85 972 64 972 l 363 972 q 383 951 383 972 q 363 931 383 931 l 265 931 q 244 910 244 931 l 244 63 q 265 42 244 42 l 363 42 q 383 21 383 42 q 363 0 383 0 l 85 0 z "},"Ï":{"ha":447,"x_min":57,"x_max":390,"o":"m 73 1085 q 65 1093 73 1085 q 57 1125 57 1101 q 73 1165 57 1149 q 113 1181 89 1181 q 152 1165 136 1181 q 168 1125 168 1149 q 152 1085 168 1101 q 113 1069 136 1069 q 73 1085 89 1069 m 85 0 q 64 21 64 0 q 85 42 64 42 l 182 42 q 203 63 203 42 l 203 910 q 182 931 203 931 l 85 931 q 64 951 64 931 q 85 972 64 972 l 363 972 q 383 951 383 972 q 363 931 383 931 l 265 931 q 244 910 244 931 l 244 63 q 265 42 244 42 l 363 42 q 383 21 383 42 q 363 0 383 0 l 85 0 m 295 1085 q 287 1093 295 1085 q 279 1125 279 1101 q 295 1165 279 1149 q 335 1181 311 1181 q 374 1165 358 1181 q 390 1125 390 1149 q 374 1085 390 1101 q 335 1069 358 1069 q 295 1085 311 1069 z "},"Ð":{"ha":1019,"x_min":64,"x_max":939,"o":"m 85 0 q 64 21 64 0 q 85 42 64 42 l 182 42 q 203 63 203 42 l 203 444 q 182 465 203 465 l 85 465 q 64 486 64 465 q 85 507 64 507 l 182 507 q 203 528 203 507 l 203 910 q 182 931 203 931 l 85 931 q 64 951 64 931 q 85 972 64 972 l 474 972 q 811 833 683 972 q 939 486 939 694 q 811 139 939 278 q 474 0 683 0 l 85 0 m 244 63 q 265 42 244 42 l 474 42 q 780 168 663 42 q 897 486 897 294 q 780 804 897 678 q 474 931 663 931 l 265 931 q 244 910 244 931 l 244 528 q 265 507 244 507 l 363 507 q 383 486 383 507 q 363 465 383 465 l 265 465 q 244 444 244 465 l 244 63 z "},"Ñ":{"ha":1090,"x_min":64,"x_max":1036,"o":"m 85 42 l 182 42 q 203 63 203 42 l 203 910 q 182 931 203 931 l 85 931 q 64 951 64 931 q 85 972 64 972 l 238 972 q 272 951 260 972 l 842 83 q 850 78 844 78 q 856 90 856 79 l 856 910 q 835 931 856 931 l 751 931 q 731 951 731 931 q 751 972 731 972 l 1015 972 q 1036 951 1036 972 q 1015 931 1036 931 l 918 931 q 897 910 897 931 l 897 63 q 918 42 897 42 l 1015 42 q 1036 21 1036 42 q 1015 0 1036 0 l 863 0 q 828 21 840 0 l 258 889 q 250 894 256 894 q 244 882 244 893 l 244 63 q 265 42 244 42 l 349 42 q 369 21 369 42 q 349 0 369 0 l 85 0 q 64 21 64 0 q 85 42 64 42 m 363 1090 q 390 1183 363 1150 q 453 1215 417 1215 q 546 1163 517 1215 q 613 1111 575 1111 q 668 1194 668 1111 q 689 1215 668 1215 q 710 1194 710 1215 q 683 1101 710 1133 q 619 1069 656 1069 q 526 1122 556 1069 q 460 1174 497 1174 q 404 1090 404 1174 q 383 1069 404 1069 q 363 1090 363 1069 z "},"Ò":{"ha":1092,"x_min":81,"x_max":1011,"o":"m 208 127 q 144 198 208 127 q 81 486 81 268 q 208 845 81 704 q 546 986 336 986 q 883 845 756 986 q 1011 486 1011 704 q 883 127 1011 268 q 546 -14 756 -14 q 208 127 336 -14 m 239 815 q 181 751 239 815 q 122 486 122 686 q 239 157 122 286 q 546 28 356 28 q 853 157 736 28 q 969 486 969 286 q 853 815 969 686 q 546 944 736 944 q 239 815 356 944 m 411 1243 q 406 1258 406 1250 q 417 1271 406 1267 q 431 1278 422 1278 q 446 1265 439 1278 l 569 1089 q 575 1075 575 1082 q 565 1061 575 1068 q 550 1057 558 1057 q 536 1065 542 1057 l 411 1243 z "},"Ó":{"ha":1092,"x_min":81,"x_max":1011,"o":"m 208 127 q 144 198 208 127 q 81 486 81 268 q 208 845 81 704 q 546 986 336 986 q 883 845 756 986 q 1011 486 1011 704 q 883 127 1011 268 q 546 -14 756 -14 q 208 127 336 -14 m 239 815 q 181 751 239 815 q 122 486 122 686 q 239 157 122 286 q 546 28 356 28 q 853 157 736 28 q 969 486 969 286 q 853 815 969 686 q 546 944 736 944 q 239 815 356 944 m 522 1089 l 646 1265 q 661 1278 653 1278 q 675 1271 669 1278 q 686 1258 686 1267 q 681 1243 686 1250 l 556 1065 q 542 1057 550 1057 q 526 1061 533 1057 q 517 1075 517 1068 q 522 1089 517 1082 z "},"Ô":{"ha":1092,"x_min":81,"x_max":1011,"o":"m 208 127 q 144 198 208 127 q 81 486 81 268 q 208 845 81 704 q 546 986 336 986 q 883 845 756 986 q 1011 486 1011 704 q 883 127 1011 268 q 546 -14 756 -14 q 208 127 336 -14 m 239 815 q 181 751 239 815 q 122 486 122 686 q 239 157 122 286 q 546 28 356 28 q 853 157 736 28 q 969 486 969 286 q 853 815 969 686 q 546 944 736 944 q 239 815 356 944 m 387 1057 q 383 1057 387 1057 q 372 1064 379 1057 q 365 1078 365 1071 q 372 1093 365 1086 l 521 1244 q 544 1257 533 1257 q 567 1246 556 1257 l 719 1093 q 726 1078 726 1086 q 719 1064 726 1071 q 705 1057 713 1057 q 690 1064 697 1057 l 557 1196 q 532 1196 544 1208 l 401 1064 q 387 1057 394 1057 z "},"Õ":{"ha":1092,"x_min":81,"x_max":1011,"o":"m 208 127 q 144 198 208 127 q 81 486 81 268 q 208 845 81 704 q 546 986 336 986 q 883 845 756 986 q 1011 486 1011 704 q 883 127 1011 268 q 546 -14 756 -14 q 208 127 336 -14 m 239 815 q 181 751 239 815 q 122 486 122 686 q 239 157 122 286 q 546 28 356 28 q 853 157 736 28 q 969 486 969 286 q 853 815 969 686 q 546 944 736 944 q 239 815 356 944 m 372 1090 q 400 1183 372 1150 q 464 1215 428 1215 q 556 1163 528 1215 q 622 1111 585 1111 q 678 1194 678 1111 q 699 1215 678 1215 q 719 1194 719 1215 q 692 1101 719 1133 q 628 1069 664 1069 q 535 1122 564 1069 q 469 1174 507 1174 q 414 1090 414 1174 q 393 1069 414 1069 q 372 1090 372 1069 z "},"Ö":{"ha":1092,"x_min":81,"x_max":1011,"o":"m 208 127 q 144 198 208 127 q 81 486 81 268 q 208 845 81 704 q 546 986 336 986 q 883 845 756 986 q 1011 486 1011 704 q 883 127 1011 268 q 546 -14 756 -14 q 208 127 336 -14 m 239 815 q 181 751 239 815 q 122 486 122 686 q 239 157 122 286 q 546 28 356 28 q 853 157 736 28 q 969 486 969 286 q 853 815 969 686 q 546 944 736 944 q 239 815 356 944 m 395 1099 q 387 1107 395 1099 q 379 1139 379 1115 q 395 1178 379 1163 q 435 1194 411 1194 q 474 1178 458 1194 q 490 1139 490 1163 q 474 1099 490 1115 q 435 1083 458 1083 q 395 1099 411 1083 m 617 1099 q 609 1107 617 1099 q 601 1139 601 1115 q 617 1178 601 1163 q 657 1194 633 1194 q 697 1178 681 1194 q 713 1139 713 1163 q 697 1099 713 1115 q 657 1083 681 1083 q 617 1099 633 1083 z "},"×":{"ha":635,"x_min":101,"x_max":533,"o":"m 108 663 q 101 678 101 669 q 108 692 101 683 q 123 700 115 700 q 138 693 131 700 l 300 531 q 329 531 314 517 l 496 697 q 511 704 503 704 q 525 697 517 704 q 533 683 533 690 q 526 668 533 675 l 358 501 q 358 472 344 486 l 521 310 q 528 295 528 303 q 521 281 528 288 q 506 274 514 274 q 492 281 499 274 l 329 442 q 300 442 314 456 l 143 285 q 128 278 136 278 q 114 285 121 278 q 107 299 107 292 q 114 314 107 307 l 271 471 q 271 501 285 488 l 108 663 z "},"Ø":{"ha":1092,"x_min":81,"x_max":1011,"o":"m 81 486 q 208 845 81 704 q 546 986 336 986 q 799 915 686 986 l 829 961 q 857 968 840 976 q 863 940 876 954 l 832 893 q 1011 486 1011 753 q 883 127 1011 268 q 546 -14 756 -14 q 292 56 403 -14 l 263 10 q 233 4 251 -6 q 228 32 215 14 l 258 79 q 81 486 81 222 m 122 486 q 282 115 122 247 l 776 879 q 546 944 678 944 q 239 815 356 944 q 122 486 122 686 m 315 92 q 546 28 413 28 q 853 157 736 28 q 969 486 969 286 q 808 857 969 728 l 315 92 z "},"Ù":{"ha":1078,"x_min":39,"x_max":1039,"o":"m 60 972 l 324 972 q 344 951 344 972 q 324 931 344 931 l 240 931 q 219 910 219 931 l 219 347 q 310 115 219 203 q 539 28 400 28 q 768 115 678 28 q 858 347 858 203 l 858 910 q 838 931 858 931 l 754 931 q 733 951 733 931 q 754 972 733 972 l 1018 972 q 1039 951 1039 972 q 1018 931 1039 931 l 921 931 q 900 910 900 931 l 900 347 q 798 87 900 188 q 539 -14 696 -14 q 280 87 382 -14 q 178 347 178 188 l 178 910 q 157 931 178 931 l 60 931 q 39 951 39 931 q 60 972 39 972 m 432 1229 q 426 1244 426 1236 q 438 1257 426 1253 q 453 1264 444 1264 q 467 1251 461 1264 l 590 1075 q 596 1061 596 1068 q 586 1047 596 1054 q 569 1043 578 1043 q 557 1051 561 1043 l 432 1229 z "},"Ú":{"ha":1078,"x_min":39,"x_max":1039,"o":"m 60 972 l 324 972 q 344 951 344 972 q 324 931 344 931 l 240 931 q 219 910 219 931 l 219 347 q 310 115 219 203 q 539 28 400 28 q 768 115 678 28 q 858 347 858 203 l 858 910 q 838 931 858 931 l 754 931 q 733 951 733 931 q 754 972 733 972 l 1018 972 q 1039 951 1039 972 q 1018 931 1039 931 l 921 931 q 900 910 900 931 l 900 347 q 798 87 900 188 q 539 -14 696 -14 q 280 87 382 -14 q 178 347 178 188 l 178 910 q 157 931 178 931 l 60 931 q 39 951 39 931 q 60 972 39 972 m 515 1075 l 639 1251 q 653 1264 644 1264 q 668 1257 661 1264 q 679 1244 679 1253 q 674 1229 679 1236 l 549 1051 q 533 1043 542 1043 q 519 1047 525 1043 q 510 1061 510 1054 q 515 1075 510 1068 z "},"Û":{"ha":1078,"x_min":39,"x_max":1039,"o":"m 60 972 l 324 972 q 344 951 344 972 q 324 931 344 931 l 240 931 q 219 910 219 931 l 219 347 q 310 115 219 203 q 539 28 400 28 q 768 115 678 28 q 858 347 858 203 l 858 910 q 838 931 858 931 l 754 931 q 733 951 733 931 q 754 972 733 972 l 1018 972 q 1039 951 1039 972 q 1018 931 1039 931 l 921 931 q 900 910 900 931 l 900 347 q 798 87 900 188 q 539 -14 696 -14 q 280 87 382 -14 q 178 347 178 188 l 178 910 q 157 931 178 931 l 60 931 q 39 951 39 931 q 60 972 39 972 m 365 1093 l 514 1244 q 538 1257 526 1257 q 560 1246 549 1257 l 713 1093 q 719 1078 719 1086 q 713 1064 719 1071 q 698 1057 706 1057 q 683 1064 690 1057 l 550 1196 q 525 1196 538 1208 l 394 1064 q 380 1057 388 1057 q 365 1064 372 1057 q 358 1078 358 1071 q 365 1093 358 1086 z "},"Ü":{"ha":1078,"x_min":39,"x_max":1039,"o":"m 60 972 l 324 972 q 344 951 344 972 q 324 931 344 931 l 240 931 q 219 910 219 931 l 219 347 q 310 115 219 203 q 539 28 400 28 q 768 115 678 28 q 858 347 858 203 l 858 910 q 838 931 858 931 l 754 931 q 733 951 733 931 q 754 972 733 972 l 1018 972 q 1039 951 1039 972 q 1018 931 1039 931 l 921 931 q 900 910 900 931 l 900 347 q 798 87 900 188 q 539 -14 696 -14 q 280 87 382 -14 q 178 347 178 188 l 178 910 q 157 931 178 931 l 60 931 q 39 951 39 931 q 60 972 39 972 m 388 1085 q 372 1125 372 1101 q 388 1165 372 1149 q 428 1181 404 1181 q 467 1165 451 1181 q 483 1125 483 1149 q 467 1085 483 1101 q 428 1069 451 1069 q 388 1085 404 1069 m 610 1085 q 594 1125 594 1101 q 610 1165 594 1149 q 650 1181 626 1181 q 690 1165 674 1181 q 706 1125 706 1149 q 690 1085 706 1101 q 650 1069 674 1069 q 610 1085 626 1069 z "},"Ý":{"ha":871,"x_min":-14,"x_max":885,"o":"m 7 972 l 271 972 q 292 951 292 972 q 271 931 292 931 l 188 931 q 172 924 176 931 q 174 910 168 918 l 425 471 q 444 471 435 457 l 697 910 q 699 924 703 918 q 683 931 694 931 l 600 931 q 579 951 579 931 q 600 972 579 972 l 864 972 q 885 951 885 972 q 864 931 885 931 l 781 931 q 746 910 758 931 l 457 408 l 457 63 q 478 42 457 42 l 575 42 q 596 21 596 42 q 575 0 596 0 l 297 0 q 276 21 276 0 q 297 42 276 42 l 394 42 q 415 63 415 42 l 415 406 l 125 910 q 90 931 113 931 l 7 931 q -14 951 -14 931 q 7 972 -14 972 m 425 1075 l 549 1251 q 564 1264 556 1264 q 578 1257 572 1264 q 589 1244 589 1253 q 583 1229 589 1236 l 458 1051 q 444 1043 453 1043 q 429 1047 436 1043 q 419 1061 419 1054 q 425 1075 419 1068 z "},"Þ":{"ha":847,"x_min":64,"x_max":793,"o":"m 244 215 q 265 194 244 194 l 411 194 q 663 271 575 194 q 751 486 751 347 q 663 701 751 625 q 411 778 575 778 l 265 778 q 244 757 244 778 l 244 215 m 244 63 q 265 42 244 42 l 363 42 q 383 21 383 42 q 363 0 383 0 l 85 0 q 64 21 64 0 q 85 42 64 42 l 182 42 q 203 63 203 42 l 203 910 q 182 931 203 931 l 85 931 q 64 951 64 931 q 85 972 64 972 l 363 972 q 383 951 383 972 q 363 931 383 931 l 265 931 q 244 910 244 931 l 244 840 q 265 819 244 819 l 411 819 q 692 731 590 819 q 793 486 793 642 q 692 242 793 331 q 411 153 590 153 l 265 153 q 244 132 244 153 l 244 63 z "},"ß":{"ha":890,"x_min":50,"x_max":849,"o":"m 71 42 l 168 42 q 189 63 189 42 l 189 632 q 168 653 189 653 l 71 653 q 50 674 50 653 q 71 694 50 694 l 168 694 q 189 715 189 694 l 189 729 q 259 919 189 853 q 435 986 329 986 q 608 931 542 986 q 675 796 675 875 q 595 667 675 717 q 515 572 515 617 q 549 494 515 528 q 633 433 583 460 q 731 375 681 408 q 849 181 847 297 q 783 43 849 100 q 613 -14 718 -14 q 335 125 439 -14 q 336 156 318 144 q 364 154 354 168 q 613 28 456 28 q 756 72 704 28 q 807 172 807 115 q 719 333 807 275 l 640 386 l 560 435 q 499 492 524 457 q 474 568 474 528 q 499 638 474 608 q 553 688 524 668 q 608 732 583 707 q 633 792 633 757 q 580 902 633 860 q 434 944 526 944 q 286 890 342 944 q 231 729 231 836 l 231 21 q 210 0 231 0 l 71 0 q 50 21 50 0 q 71 42 50 42 z "},"à":{"ha":794,"x_min":57,"x_max":765,"o":"m 236 979 q 231 994 231 986 q 242 1007 231 1001 q 256 1014 249 1014 q 271 1001 264 1014 l 394 825 q 400 811 400 818 q 390 797 400 804 q 376 793 383 793 q 361 801 368 793 l 236 979 m 585 340 q 564 361 585 361 l 335 361 q 156 314 214 361 q 99 194 99 267 q 152 74 99 121 q 314 28 206 28 q 551 164 449 28 q 585 215 569 188 l 585 340 m 368 708 q 556 642 485 708 q 626 479 626 576 l 626 63 q 647 42 626 42 l 744 42 q 765 21 765 42 q 744 0 765 0 l 606 0 q 585 21 585 0 l 585 99 q 579 118 585 113 q 563 113 574 124 q 458 26 525 65 q 319 -14 392 -14 q 124 44 190 -14 q 57 193 57 101 q 133 344 57 285 q 335 403 210 403 l 564 403 q 585 424 585 403 l 585 479 q 524 613 585 560 q 374 667 463 667 q 228 642 285 667 q 148 600 171 618 q 113 599 125 582 q 117 626 101 615 q 368 708 217 708 z "},"á":{"ha":794,"x_min":57,"x_max":765,"o":"m 347 825 l 471 1001 q 485 1014 478 1014 q 500 1007 493 1014 q 511 994 511 1001 q 506 979 511 986 l 381 801 q 366 793 374 793 q 351 797 358 793 q 342 811 342 804 q 347 825 342 818 m 585 340 q 564 361 585 361 l 335 361 q 156 314 214 361 q 99 194 99 267 q 152 74 99 121 q 314 28 206 28 q 551 164 449 28 q 585 215 569 188 l 585 340 m 368 708 q 556 642 485 708 q 626 479 626 576 l 626 63 q 647 42 626 42 l 744 42 q 765 21 765 42 q 744 0 765 0 l 606 0 q 585 21 585 0 l 585 99 q 579 118 585 113 q 563 113 574 124 q 458 26 525 65 q 319 -14 392 -14 q 124 44 190 -14 q 57 193 57 101 q 133 344 57 285 q 335 403 210 403 l 564 403 q 585 424 585 403 l 585 479 q 524 613 585 560 q 374 667 463 667 q 228 642 285 667 q 148 600 171 618 q 113 599 125 582 q 117 626 101 615 q 368 708 217 708 z "},"â":{"ha":794,"x_min":57,"x_max":765,"o":"m 197 815 l 346 967 q 369 979 358 979 q 392 968 381 979 l 544 815 q 551 800 551 807 q 544 786 551 793 q 530 779 538 779 q 515 786 522 779 l 382 918 q 357 918 369 931 l 226 786 q 211 779 218 779 q 197 786 204 779 q 190 800 190 793 q 197 815 190 807 m 585 340 q 564 361 585 361 l 335 361 q 156 314 214 361 q 99 194 99 267 q 152 74 99 121 q 314 28 206 28 q 551 164 449 28 q 585 215 569 188 l 585 340 m 368 708 q 556 642 485 708 q 626 479 626 576 l 626 63 q 647 42 626 42 l 744 42 q 765 21 765 42 q 744 0 765 0 l 606 0 q 585 21 585 0 l 585 99 q 579 118 585 113 q 563 113 574 124 q 458 26 525 65 q 319 -14 392 -14 q 124 44 190 -14 q 57 193 57 101 q 133 344 57 285 q 335 403 210 403 l 564 403 q 585 424 585 403 l 585 479 q 524 613 585 560 q 374 667 463 667 q 228 642 285 667 q 148 600 171 618 q 113 599 125 582 q 117 626 101 615 q 368 708 217 708 z "},"ã":{"ha":794,"x_min":57,"x_max":765,"o":"m 197 813 q 225 906 197 872 q 289 938 253 938 q 381 885 353 938 q 447 833 410 833 q 503 917 503 833 q 524 938 503 938 q 544 917 544 938 q 517 824 544 856 q 453 792 489 792 q 360 844 389 792 q 294 896 332 896 q 239 813 239 896 q 218 792 239 792 q 197 813 197 792 m 585 340 q 564 361 585 361 l 335 361 q 156 314 214 361 q 99 194 99 267 q 152 74 99 121 q 314 28 206 28 q 551 164 449 28 q 585 215 569 188 l 585 340 m 368 708 q 556 642 485 708 q 626 479 626 576 l 626 63 q 647 42 626 42 l 744 42 q 765 21 765 42 q 744 0 765 0 l 606 0 q 585 21 585 0 l 585 99 q 579 118 585 113 q 563 113 574 124 q 458 26 525 65 q 319 -14 392 -14 q 124 44 190 -14 q 57 193 57 101 q 133 344 57 285 q 335 403 210 403 l 564 403 q 585 424 585 403 l 585 479 q 524 613 585 560 q 374 667 463 667 q 228 642 285 667 q 148 600 171 618 q 113 599 125 582 q 117 626 101 615 q 368 708 217 708 z "},"ä":{"ha":794,"x_min":57,"x_max":765,"o":"m 233 807 q 218 847 218 824 q 234 887 218 871 q 274 903 250 903 q 313 887 297 903 q 329 847 329 871 q 313 808 329 824 q 274 792 297 792 q 233 807 250 792 m 456 807 q 440 847 440 824 q 456 887 440 871 q 496 903 472 903 q 535 887 519 903 q 551 847 551 871 q 535 808 551 824 q 496 792 519 792 q 456 807 472 792 m 585 340 q 564 361 585 361 l 335 361 q 156 314 214 361 q 99 194 99 267 q 152 74 99 121 q 314 28 206 28 q 551 164 449 28 q 585 215 569 188 l 585 340 m 368 708 q 556 642 485 708 q 626 479 626 576 l 626 63 q 647 42 626 42 l 744 42 q 765 21 765 42 q 744 0 765 0 l 606 0 q 585 21 585 0 l 585 99 q 579 118 585 113 q 563 113 574 124 q 458 26 525 65 q 319 -14 392 -14 q 124 44 190 -14 q 57 193 57 101 q 133 344 57 285 q 335 403 210 403 l 564 403 q 585 424 585 403 l 585 479 q 524 613 585 560 q 374 667 463 667 q 228 642 285 667 q 148 600 171 618 q 113 599 125 582 q 117 626 101 615 q 368 708 217 708 z "},"å":{"ha":794,"x_min":57,"x_max":765,"o":"m 290 810 q 260 889 260 842 q 291 968 260 936 q 371 1000 322 1000 q 451 968 419 1000 q 482 889 482 936 q 451 810 482 842 q 371 778 419 778 q 290 810 322 778 m 422 940 q 412 949 422 940 q 371 958 403 958 q 320 940 339 958 q 301 889 301 921 q 320 838 301 857 q 371 819 339 819 q 422 838 403 819 q 440 889 440 857 q 422 940 440 921 m 585 340 q 564 361 585 361 l 335 361 q 156 314 214 361 q 99 194 99 267 q 152 74 99 121 q 314 28 206 28 q 551 164 449 28 q 585 215 569 188 l 585 340 m 368 708 q 556 642 485 708 q 626 479 626 576 l 626 63 q 647 42 626 42 l 744 42 q 765 21 765 42 q 744 0 765 0 l 606 0 q 585 21 585 0 l 585 99 q 579 118 585 113 q 563 113 574 124 q 458 26 525 65 q 319 -14 392 -14 q 124 44 190 -14 q 57 193 57 101 q 133 344 57 285 q 335 403 210 403 l 564 403 q 585 424 585 403 l 585 479 q 524 613 585 560 q 374 667 463 667 q 228 642 285 667 q 148 600 171 618 q 113 599 125 582 q 117 626 101 615 q 368 708 217 708 z "},"æ":{"ha":1301,"x_min":58,"x_max":1239,"o":"m 600 340 q 579 361 600 361 l 336 361 q 100 194 100 361 q 322 28 100 28 q 567 164 463 28 q 600 215 585 188 l 600 340 m 647 424 q 667 403 643 403 l 1176 403 q 1197 424 1197 403 q 1116 591 1197 515 q 917 667 1035 667 q 719 578 799 667 q 672 510 690 544 q 647 424 654 476 m 118 626 q 381 708 217 708 q 550 658 481 708 q 636 528 619 607 q 752 660 678 613 q 919 708 826 708 q 1147 621 1054 708 q 1239 424 1239 533 l 1239 403 q 1197 361 1239 361 l 663 361 q 642 340 642 361 q 719 116 642 204 q 924 28 796 28 q 1136 97 1050 28 q 1171 125 1158 114 q 1190 133 1183 136 q 1208 117 1197 129 q 1201 92 1218 106 q 1086 17 1151 49 q 920 -14 1021 -14 q 742 39 819 -14 q 629 185 665 92 q 495 42 581 99 q 322 -14 410 -14 q 123 40 188 -14 q 58 193 58 94 q 130 347 58 292 q 336 403 201 403 l 579 403 q 600 424 600 403 l 600 479 q 538 613 600 560 q 381 667 475 667 q 229 642 286 667 q 149 600 172 618 q 115 599 126 582 q 118 626 103 615 z "},"ç":{"ha":778,"x_min":71,"x_max":689,"o":"m 381 -208 q 478 -153 478 -208 q 460 -113 478 -129 q 408 -97 443 -97 l 388 -97 q 367 -76 367 -97 l 367 0 q 388 21 367 21 q 408 0 408 21 l 408 -56 q 490 -83 460 -56 q 519 -153 519 -110 q 485 -224 519 -197 q 381 -250 451 -250 q 360 -229 360 -250 q 381 -208 360 -208 m 640 521 q 376 667 528 667 q 188 578 264 667 q 113 344 113 488 q 192 115 113 201 q 400 28 271 28 q 614 97 528 28 q 649 125 636 114 q 668 133 661 136 q 682 121 675 129 q 689 106 689 113 q 676 88 689 100 q 565 17 631 47 q 397 -14 499 -14 q 160 87 250 -14 q 71 347 71 188 q 158 608 71 507 q 380 708 246 708 q 618 604 514 708 q 640 618 640 585 l 640 674 q 661 694 640 694 q 682 674 682 694 l 682 451 q 661 431 682 431 q 640 451 640 431 l 640 521 z "},"è":{"ha":788,"x_min":72,"x_max":725,"o":"m 257 979 q 251 994 251 986 q 263 1007 251 1001 q 277 1014 269 1014 q 292 1001 285 1014 l 415 825 q 421 811 421 818 q 411 797 421 804 q 395 793 403 793 q 382 801 388 793 l 257 979 m 617 97 q 651 125 639 114 q 669 133 663 136 q 687 117 676 129 q 681 92 697 106 q 565 17 631 49 q 399 -14 500 -14 q 162 88 251 -14 q 72 347 72 189 q 162 607 72 506 q 397 708 251 708 q 633 617 542 708 q 725 396 725 525 l 725 375 q 683 333 725 333 l 136 333 q 115 313 113 333 q 198 110 124 192 q 402 28 272 28 q 617 97 532 28 m 117 392 q 136 375 117 375 l 663 375 q 683 396 683 375 q 602 587 683 507 q 397 667 521 667 q 194 579 272 667 q 117 392 117 492 z "},"é":{"ha":788,"x_min":72,"x_max":725,"o":"m 382 825 l 506 1001 q 520 1014 513 1014 q 535 1007 528 1014 q 546 994 546 1001 q 540 979 546 986 l 415 801 q 401 793 408 793 q 386 797 393 793 q 376 811 376 804 q 382 825 376 818 m 617 97 q 651 125 639 114 q 669 133 663 136 q 687 117 676 129 q 681 92 697 106 q 565 17 631 49 q 399 -14 500 -14 q 162 88 251 -14 q 72 347 72 189 q 162 607 72 506 q 397 708 251 708 q 633 617 542 708 q 725 396 725 525 l 725 375 q 683 333 725 333 l 136 333 q 115 313 113 333 q 198 110 124 192 q 402 28 272 28 q 617 97 532 28 m 117 392 q 136 375 117 375 l 663 375 q 683 396 683 375 q 602 587 683 507 q 397 667 521 667 q 194 579 272 667 q 117 392 117 492 z "},"ê":{"ha":788,"x_min":72,"x_max":725,"o":"m 218 815 l 367 967 q 390 979 379 979 q 413 968 401 979 l 565 815 q 572 801 572 808 q 565 786 572 793 q 551 779 558 779 q 536 786 543 779 l 403 918 q 378 918 390 931 l 247 786 q 233 779 240 779 q 218 786 225 779 q 211 801 211 793 q 218 815 211 808 m 617 97 q 651 125 639 114 q 669 133 663 136 q 687 117 676 129 q 681 92 697 106 q 565 17 631 49 q 399 -14 500 -14 q 162 88 251 -14 q 72 347 72 189 q 162 607 72 506 q 397 708 251 708 q 633 617 542 708 q 725 396 725 525 l 725 375 q 683 333 725 333 l 136 333 q 115 313 113 333 q 198 110 124 192 q 402 28 272 28 q 617 97 532 28 m 117 392 q 136 375 117 375 l 663 375 q 683 396 683 375 q 602 587 683 507 q 397 667 521 667 q 194 579 272 667 q 117 392 117 492 z "},"ë":{"ha":788,"x_min":72,"x_max":725,"o":"m 240 821 q 225 861 225 838 q 241 901 225 885 q 281 917 257 917 q 320 901 304 917 q 336 861 336 885 q 320 822 336 838 q 281 806 304 806 q 240 821 257 806 m 463 821 q 447 861 447 838 q 463 901 447 885 q 503 917 479 917 q 542 901 526 917 q 558 861 558 885 q 542 822 558 838 q 503 806 526 806 q 463 821 479 806 m 617 97 q 651 125 639 114 q 669 133 663 136 q 687 117 676 129 q 681 92 697 106 q 565 17 631 49 q 399 -14 500 -14 q 162 88 251 -14 q 72 347 72 189 q 162 607 72 506 q 397 708 251 708 q 633 617 542 708 q 725 396 725 525 l 725 375 q 683 333 725 333 l 136 333 q 115 313 113 333 q 198 110 124 192 q 402 28 272 28 q 617 97 532 28 m 117 392 q 136 375 117 375 l 663 375 q 683 396 683 375 q 602 587 683 507 q 397 667 521 667 q 194 579 272 667 q 117 392 117 492 z "},"ì":{"ha":397,"x_min":51,"x_max":371,"o":"m 72 0 q 51 21 51 0 q 72 42 51 42 l 169 42 q 190 63 190 42 l 190 632 q 169 653 190 653 l 72 653 q 51 674 51 653 q 72 694 51 694 l 211 694 q 232 674 232 694 l 232 63 q 253 42 232 42 l 350 42 q 371 21 371 42 q 350 0 371 0 l 72 0 m 63 979 q 57 994 57 986 q 68 1007 57 1003 q 83 1014 75 1014 q 97 1001 92 1014 l 221 825 q 226 811 226 818 q 217 797 226 804 q 200 793 208 793 q 188 801 192 793 l 63 979 z "},"í":{"ha":397,"x_min":51,"x_max":371,"o":"m 72 0 q 51 21 51 0 q 72 42 51 42 l 169 42 q 190 63 190 42 l 190 632 q 169 653 190 653 l 72 653 q 51 674 51 653 q 72 694 51 694 l 211 694 q 232 674 232 694 l 232 63 q 253 42 232 42 l 350 42 q 371 21 371 42 q 350 0 371 0 l 72 0 m 174 825 l 297 1001 q 311 1014 303 1014 q 326 1007 319 1014 q 338 994 338 1003 q 332 979 338 986 l 207 801 q 192 793 200 793 q 178 797 183 793 q 168 811 168 804 q 174 825 168 818 z "},"î":{"ha":397,"x_min":17,"x_max":378,"o":"m 53 786 q 28 783 39 772 q 17 801 17 793 q 24 815 17 808 l 172 967 q 196 979 185 979 q 218 968 207 979 l 371 815 q 378 801 378 808 q 367 783 378 793 q 342 786 356 772 l 208 918 q 183 918 196 931 l 53 786 m 72 0 q 51 21 51 0 q 72 42 51 42 l 169 42 q 190 63 190 42 l 190 632 q 169 653 190 653 l 72 653 q 51 674 51 653 q 72 694 51 694 l 211 694 q 232 674 232 694 l 232 63 q 253 42 232 42 l 350 42 q 371 21 371 42 q 350 0 371 0 l 72 0 z "},"ï":{"ha":397,"x_min":31,"x_max":371,"o":"m 47 822 q 39 830 47 822 q 31 861 31 838 q 47 901 31 885 q 86 917 63 917 q 126 901 110 917 q 142 861 142 885 q 126 822 142 838 q 86 806 110 806 q 47 822 63 806 m 72 0 q 51 21 51 0 q 72 42 51 42 l 169 42 q 190 63 190 42 l 190 632 q 169 653 190 653 l 72 653 q 51 674 51 653 q 72 694 51 694 l 211 694 q 232 674 232 694 l 232 63 q 253 42 232 42 l 350 42 q 371 21 371 42 q 350 0 371 0 l 72 0 m 269 822 q 261 830 269 822 q 253 861 253 838 q 269 901 253 885 q 308 917 285 917 q 348 901 332 917 q 364 861 364 885 q 348 822 364 838 q 308 806 332 806 q 269 822 285 806 z "},"ð":{"ha":871,"x_min":75,"x_max":769,"o":"m 728 417 q 707 576 728 503 q 679 597 699 597 l 453 597 q 201 524 285 597 q 117 317 117 450 q 197 106 117 185 q 415 28 276 28 q 641 130 554 28 q 728 417 728 232 m 679 660 q 543 858 631 775 q 514 857 526 871 l 436 765 q 407 763 424 749 q 406 793 390 778 l 482 883 q 482 907 497 899 q 200 1000 354 1000 q 179 1021 179 1000 q 200 1042 179 1042 q 504 943 361 1042 q 535 946 522 929 l 621 1049 q 635 1057 626 1057 q 650 1051 643 1057 q 654 1022 664 1036 l 568 919 q 571 890 556 906 q 717 675 664 799 q 769 417 769 551 q 673 104 769 222 q 417 -14 576 -14 q 167 78 258 -14 q 75 319 75 169 q 175 554 75 469 q 446 639 275 639 l 661 639 q 679 660 686 639 z "},"ñ":{"ha":928,"x_min":50,"x_max":911,"o":"m 71 42 l 168 42 q 189 63 189 42 l 189 632 q 168 653 189 653 l 71 653 q 50 674 50 653 q 71 694 50 694 l 210 694 q 231 674 231 694 l 231 596 q 236 576 231 582 q 253 582 242 571 q 497 708 365 708 q 701 637 629 708 q 772 431 772 565 l 772 63 q 793 42 772 42 l 890 42 q 911 21 911 42 q 890 0 911 0 l 626 0 q 606 21 606 0 q 626 42 606 42 l 710 42 q 731 63 731 42 l 731 431 q 669 608 731 549 q 503 667 608 667 q 303 572 397 667 q 231 479 261 531 l 231 63 q 251 42 231 42 l 335 42 q 356 21 356 42 q 335 0 356 0 l 71 0 q 50 21 50 0 q 71 42 50 42 m 307 813 q 334 905 307 872 q 397 938 361 938 q 490 885 461 938 q 557 833 519 833 q 613 917 613 833 q 633 938 613 938 q 654 917 654 938 q 627 824 654 856 q 564 792 600 792 q 471 844 500 792 q 404 896 442 896 q 349 813 349 896 q 328 792 349 792 q 307 813 307 792 z "},"ò":{"ha":822,"x_min":71,"x_max":751,"o":"m 165 86 q 118 136 165 86 q 71 347 71 186 q 165 608 71 508 q 411 708 260 708 q 657 608 563 708 q 751 347 751 508 q 657 86 751 186 q 411 -14 563 -14 q 165 86 260 -14 m 411 667 q 344 667 411 667 q 194 579 276 667 q 113 347 113 492 q 194 115 113 201 q 411 28 275 28 q 628 115 547 28 q 710 347 710 201 q 628 579 710 492 q 411 667 546 667 m 276 979 q 271 994 271 986 q 282 1007 271 1001 q 297 1014 289 1014 q 311 1001 304 1014 l 435 825 q 440 811 440 818 q 431 797 440 804 q 415 793 422 793 q 401 801 407 793 l 276 979 z "},"ó":{"ha":822,"x_min":71,"x_max":751,"o":"m 165 86 q 118 136 165 86 q 71 347 71 186 q 165 608 71 508 q 411 708 260 708 q 657 608 563 708 q 751 347 751 508 q 657 86 751 186 q 411 -14 563 -14 q 165 86 260 -14 m 411 667 q 344 667 411 667 q 194 579 276 667 q 113 347 113 492 q 194 115 113 201 q 411 28 275 28 q 628 115 547 28 q 710 347 710 201 q 628 579 710 492 q 411 667 546 667 m 388 825 l 511 1001 q 526 1014 518 1014 q 540 1007 533 1014 q 551 994 551 1001 q 546 979 551 986 l 421 801 q 406 793 414 793 q 392 797 399 793 q 382 811 382 804 q 388 825 382 818 z "},"ô":{"ha":822,"x_min":71,"x_max":751,"o":"m 165 86 q 118 136 165 86 q 71 347 71 186 q 165 608 71 508 q 411 708 260 708 q 657 608 563 708 q 751 347 751 508 q 657 86 751 186 q 411 -14 563 -14 q 165 86 260 -14 m 411 667 q 344 667 411 667 q 194 579 276 667 q 113 347 113 492 q 194 115 113 201 q 411 28 275 28 q 628 115 547 28 q 710 347 710 201 q 628 579 710 492 q 411 667 546 667 m 252 779 q 248 779 252 779 q 238 786 244 779 q 231 801 231 793 q 238 815 231 808 l 386 967 q 410 979 399 979 q 432 968 421 979 l 585 815 q 592 801 592 808 q 585 786 592 793 q 570 779 578 779 q 556 786 563 779 l 422 918 q 397 918 410 931 l 267 786 q 252 779 260 779 z "},"õ":{"ha":822,"x_min":71,"x_max":751,"o":"m 165 86 q 118 136 165 86 q 71 347 71 186 q 165 608 71 508 q 411 708 260 708 q 657 608 563 708 q 751 347 751 508 q 657 86 751 186 q 411 -14 563 -14 q 165 86 260 -14 m 411 667 q 344 667 411 667 q 194 579 276 667 q 113 347 113 492 q 194 115 113 201 q 411 28 275 28 q 628 115 547 28 q 710 347 710 201 q 628 579 710 492 q 411 667 546 667 m 238 813 q 265 905 238 872 q 328 938 292 938 q 421 885 392 938 q 488 833 450 833 q 543 917 543 833 q 564 938 543 938 q 585 917 585 938 q 558 824 585 856 q 494 792 531 792 q 401 844 431 792 q 335 896 372 896 q 279 813 279 896 q 258 792 279 792 q 238 813 238 792 z "},"ö":{"ha":822,"x_min":71,"x_max":751,"o":"m 165 86 q 118 136 165 86 q 71 347 71 186 q 165 608 71 508 q 411 708 260 708 q 657 608 563 708 q 751 347 751 508 q 657 86 751 186 q 411 -14 563 -14 q 165 86 260 -14 m 411 667 q 344 667 411 667 q 194 579 276 667 q 113 347 113 492 q 194 115 113 201 q 411 28 275 28 q 628 115 547 28 q 710 347 710 201 q 628 579 710 492 q 411 667 546 667 m 260 822 q 252 830 260 822 q 244 861 244 838 q 260 901 244 885 q 300 917 276 917 q 340 901 324 917 q 356 861 356 885 q 340 822 356 838 q 300 806 324 806 q 260 822 276 806 m 483 822 q 475 830 483 822 q 467 861 467 838 q 483 901 467 885 q 522 917 499 917 q 562 901 546 917 q 578 861 578 885 q 562 822 578 838 q 522 806 546 806 q 483 822 499 806 z "},"÷":{"ha":807,"x_min":111,"x_max":694,"o":"m 132 424 q 111 444 111 424 q 132 465 111 465 l 674 465 q 694 444 694 465 q 674 424 694 424 l 132 424 m 345 172 q 336 181 345 172 q 326 222 326 190 q 345 273 326 254 q 396 292 364 292 q 447 273 428 292 q 465 222 465 254 q 447 172 465 190 q 396 153 428 153 q 345 172 364 153 m 345 616 q 336 625 345 616 q 326 667 326 635 q 345 717 326 699 q 396 736 364 736 q 447 717 428 736 q 465 667 465 699 q 447 616 465 635 q 396 597 428 597 q 345 616 364 597 z "},"ø":{"ha":822,"x_min":71,"x_max":751,"o":"m 71 347 q 165 608 71 508 q 411 708 260 708 q 589 663 508 708 l 613 699 q 628 708 619 708 q 640 706 636 708 q 646 678 660 692 l 621 640 q 751 347 751 538 q 657 86 751 186 q 411 -14 563 -14 q 232 32 311 -14 l 208 -4 q 194 -14 203 -14 q 181 -11 186 -14 q 174 18 161 0 l 197 56 q 71 347 71 156 m 113 347 q 219 90 113 178 l 567 628 q 411 667 499 667 q 194 579 276 667 q 113 347 113 492 m 254 67 q 411 28 322 28 q 628 115 547 28 q 710 347 710 201 q 600 606 710 522 l 254 67 z "},"ù":{"ha":903,"x_min":15,"x_max":876,"o":"m 36 694 l 175 694 q 196 674 196 694 l 196 264 q 257 87 196 146 q 424 28 318 28 q 622 121 529 28 q 696 215 664 164 l 696 632 q 675 653 696 653 l 578 653 q 557 674 557 653 q 578 694 557 694 l 717 694 q 738 674 738 694 l 738 63 q 758 42 738 42 l 856 42 q 876 21 876 42 q 856 0 876 0 l 717 0 q 696 21 696 0 l 696 99 q 690 118 696 113 q 674 113 685 124 q 429 -14 561 -14 q 226 58 297 -14 q 154 264 154 129 l 154 632 q 133 653 154 653 l 36 653 q 15 674 15 653 q 36 694 15 694 m 311 951 q 306 967 306 958 q 317 979 306 975 q 331 986 322 986 q 346 974 339 986 l 469 797 q 475 783 475 790 q 465 769 475 776 q 450 765 458 765 q 436 774 442 765 l 311 951 z "},"ú":{"ha":903,"x_min":15,"x_max":876,"o":"m 36 694 l 175 694 q 196 674 196 694 l 196 264 q 257 87 196 146 q 424 28 318 28 q 622 121 529 28 q 696 215 664 164 l 696 632 q 675 653 696 653 l 578 653 q 557 674 557 653 q 578 694 557 694 l 717 694 q 738 674 738 694 l 738 63 q 758 42 738 42 l 856 42 q 876 21 876 42 q 856 0 876 0 l 717 0 q 696 21 696 0 l 696 99 q 690 118 696 113 q 674 113 685 124 q 429 -14 561 -14 q 226 58 297 -14 q 154 264 154 129 l 154 632 q 133 653 154 653 l 36 653 q 15 674 15 653 q 36 694 15 694 m 381 797 l 504 974 q 519 986 511 986 q 533 979 528 986 q 544 967 544 975 q 539 951 544 958 l 414 774 q 400 765 408 765 q 385 769 392 765 q 375 783 375 776 q 381 797 375 790 z "},"û":{"ha":903,"x_min":15,"x_max":876,"o":"m 36 694 l 175 694 q 196 674 196 694 l 196 264 q 257 87 196 146 q 424 28 318 28 q 622 121 529 28 q 696 215 664 164 l 696 632 q 675 653 696 653 l 578 653 q 557 674 557 653 q 578 694 557 694 l 717 694 q 738 674 738 694 l 738 63 q 758 42 738 42 l 856 42 q 876 21 876 42 q 856 0 876 0 l 717 0 q 696 21 696 0 l 696 99 q 690 118 696 113 q 674 113 685 124 q 429 -14 561 -14 q 226 58 297 -14 q 154 264 154 129 l 154 632 q 133 653 154 653 l 36 653 q 15 674 15 653 q 36 694 15 694 m 258 815 l 407 967 q 431 979 419 979 q 453 968 442 979 l 606 815 q 613 800 613 807 q 606 786 613 793 q 591 779 599 779 q 576 786 583 779 l 443 918 q 418 918 431 931 l 288 786 q 273 779 281 779 q 258 786 265 779 q 251 800 251 793 q 258 815 251 807 z "},"ü":{"ha":903,"x_min":15,"x_max":876,"o":"m 36 694 l 175 694 q 196 674 196 694 l 196 264 q 257 87 196 146 q 424 28 318 28 q 622 121 529 28 q 696 215 664 164 l 696 632 q 675 653 696 653 l 578 653 q 557 674 557 653 q 578 694 557 694 l 717 694 q 738 674 738 694 l 738 63 q 758 42 738 42 l 856 42 q 876 21 876 42 q 856 0 876 0 l 717 0 q 696 21 696 0 l 696 99 q 690 118 696 113 q 674 113 685 124 q 429 -14 561 -14 q 226 58 297 -14 q 154 264 154 129 l 154 632 q 133 653 154 653 l 36 653 q 15 674 15 653 q 36 694 15 694 m 281 807 q 265 847 265 824 q 281 887 265 871 q 321 903 297 903 q 360 887 344 903 q 376 847 376 871 q 360 808 376 824 q 321 792 344 792 q 281 807 297 792 m 503 807 q 488 847 488 824 q 503 887 488 871 q 543 903 519 903 q 583 887 567 903 q 599 847 599 871 q 583 808 599 824 q 543 792 567 792 q 503 807 519 792 z "},"ý":{"ha":857,"x_min":-1,"x_max":858,"o":"m 404 797 l 528 974 q 542 986 535 986 q 557 979 550 986 q 568 966 568 974 q 563 951 568 958 l 438 774 q 423 765 431 765 q 408 769 415 765 q 399 783 399 776 q 404 797 399 790 m 366 -224 q 348 -243 366 -224 q 298 -277 331 -262 q 226 -292 265 -292 q 117 -267 161 -292 q 49 -212 72 -243 q 46 -181 32 -196 q 75 -181 60 -167 q 134 -227 99 -204 q 228 -250 169 -250 q 329 -202 288 -250 q 411 -49 371 -154 l 425 -12 q 425 21 431 6 l 138 632 q 110 653 126 653 l 19 653 q -1 674 -1 653 q 19 694 -1 694 l 283 694 q 304 674 304 694 q 283 653 304 653 l 197 653 q 183 632 172 653 l 446 83 q 461 83 453 64 l 674 632 q 660 653 683 653 l 574 653 q 553 674 553 653 q 574 694 553 694 l 838 694 q 858 674 858 694 q 838 653 858 653 l 747 653 q 719 632 729 653 l 456 -49 q 366 -224 401 -185 z "},"þ":{"ha":833,"x_min":-4,"x_max":760,"o":"m 385 42 q 631 119 544 42 q 718 349 718 197 q 645 583 718 500 q 457 667 572 667 q 247 572 342 667 q 176 479 208 533 l 176 63 q 197 42 176 42 l 385 42 m 197 0 q 176 -21 176 0 l 176 -215 q 197 -236 176 -236 l 308 -236 q 329 -257 329 -236 q 308 -278 329 -278 l 17 -278 q -4 -257 -4 -278 q 17 -236 -4 -236 l 114 -236 q 135 -215 135 -236 l 135 910 q 114 931 135 931 l 17 931 q -4 951 -4 931 q 17 972 -4 972 l 156 972 q 176 951 176 972 l 176 596 q 182 576 176 582 q 199 582 188 571 q 300 667 233 626 q 454 708 367 708 q 676 610 593 708 q 760 347 760 513 q 660 90 760 182 q 385 0 560 0 l 197 0 z "},"ÿ":{"ha":857,"x_min":-1,"x_max":858,"o":"m 269 793 q 254 833 254 810 q 270 873 254 857 q 310 889 286 889 q 349 873 333 889 q 365 833 365 857 q 349 794 365 810 q 310 778 333 778 q 269 793 286 778 m 492 793 q 476 833 476 810 q 492 873 476 857 q 532 889 508 889 q 572 873 556 889 q 588 833 588 857 q 572 794 588 810 q 532 778 556 778 q 492 793 508 778 m 366 -224 q 348 -243 366 -224 q 298 -277 331 -262 q 226 -292 265 -292 q 117 -267 161 -292 q 49 -212 72 -243 q 46 -181 32 -196 q 75 -181 60 -167 q 134 -227 99 -204 q 228 -250 169 -250 q 329 -202 288 -250 q 411 -49 371 -154 l 425 -12 q 425 21 431 6 l 138 632 q 110 653 126 653 l 19 653 q -1 674 -1 653 q 19 694 -1 694 l 283 694 q 304 674 304 694 q 283 653 304 653 l 197 653 q 183 632 172 653 l 446 83 q 461 83 453 64 l 674 632 q 660 653 683 653 l 574 653 q 553 674 553 653 q 574 694 553 694 l 838 694 q 858 674 858 694 q 838 653 858 653 l 747 653 q 719 632 729 653 l 456 -49 q 366 -224 401 -185 z "},"Œ":{"ha":1282,"x_min":81,"x_max":1213,"o":"m 208 139 q 144 208 208 139 q 81 486 81 278 q 208 833 81 694 q 546 972 336 972 l 1178 972 q 1199 951 1199 972 l 1199 785 q 1178 764 1199 764 q 1157 785 1157 764 l 1157 910 q 1136 931 1157 931 l 699 931 q 678 910 678 931 l 678 535 q 699 514 678 514 l 1011 514 q 1032 535 1032 514 l 1032 604 q 1053 625 1032 625 q 1074 604 1074 625 l 1074 382 q 1053 361 1074 361 q 1032 382 1032 361 l 1032 451 q 1011 472 1032 472 l 699 472 q 678 451 678 472 l 678 63 q 699 42 678 42 l 1150 42 q 1171 63 1171 42 l 1171 188 q 1192 208 1171 208 q 1213 188 1213 208 l 1213 21 q 1192 0 1213 0 l 546 0 q 208 139 336 0 m 240 804 q 181 741 240 804 q 122 486 122 678 q 240 168 122 294 q 546 42 357 42 l 615 42 q 636 63 636 42 l 636 910 q 615 931 636 931 l 546 931 q 240 804 357 931 z "},"œ":{"ha":1272,"x_min":71,"x_max":1210,"o":"m 1147 375 q 1168 396 1168 375 q 1087 587 1168 507 q 881 667 1006 667 q 685 586 757 667 q 601 396 613 506 q 621 375 600 375 l 1147 375 m 410 667 q 343 667 410 667 q 194 579 276 667 q 113 347 113 492 q 194 115 113 201 q 410 28 275 28 q 625 111 546 28 q 557 347 557 204 q 625 582 557 489 q 410 667 544 667 m 1100 97 q 1135 125 1122 114 q 1154 133 1147 136 q 1172 117 1161 129 q 1165 92 1182 106 q 1050 17 1115 49 q 883 -14 985 -14 q 651 81 739 -14 q 410 -14 560 -14 q 165 86 260 -14 q 71 347 71 186 q 165 608 71 508 q 408 708 260 708 q 651 614 557 708 q 883 708 742 708 q 1117 617 1025 708 q 1210 396 1210 525 l 1210 375 q 1168 333 1210 333 l 621 333 q 600 313 600 333 q 683 109 608 190 q 886 28 757 28 q 1100 97 1015 28 z "},"Š":{"ha":924,"x_min":125,"x_max":847,"o":"m 449 1124 q 474 1124 461 1111 l 607 1256 q 621 1263 614 1263 q 639 1251 628 1263 q 636 1226 650 1240 l 483 1074 q 461 1064 474 1064 q 438 1075 449 1064 l 289 1226 q 285 1251 274 1240 q 303 1263 296 1263 q 318 1256 311 1263 l 449 1124 m 256 104 q 512 28 372 28 q 728 90 651 28 q 806 250 806 151 q 772 344 806 304 q 689 407 739 385 q 474 476 633 432 q 253 549 314 519 q 159 625 193 579 q 125 731 125 671 q 201 917 125 847 q 444 986 278 986 q 749 868 610 986 q 771 882 771 850 l 771 951 q 792 972 771 972 q 813 951 813 972 l 813 688 q 792 667 813 667 q 771 688 771 667 l 771 785 q 581 919 694 872 q 444 944 519 944 q 235 886 303 944 q 167 743 167 828 q 200 649 167 689 q 283 586 233 608 q 499 517 339 561 q 719 444 658 474 q 813 368 779 414 q 847 258 847 322 q 760 60 847 133 q 500 -14 672 -14 q 189 104 328 -14 q 167 90 167 122 l 167 21 q 146 0 167 0 q 125 21 125 0 l 125 285 q 146 306 125 306 q 167 285 167 306 l 167 181 q 256 104 204 138 z "},"š":{"ha":769,"x_min":83,"x_max":694,"o":"m 358 825 q 383 825 371 813 l 517 957 q 531 964 524 964 q 549 953 539 964 q 546 928 560 942 l 393 775 q 371 765 383 765 q 347 776 358 765 l 199 928 q 194 953 183 942 q 213 964 206 964 q 228 957 221 964 l 358 825 m 403 28 q 588 70 524 28 q 653 181 653 113 q 521 303 653 272 q 374 329 460 317 q 250 353 289 342 q 125 415 167 375 q 83 527 83 454 q 158 654 83 600 q 365 708 232 708 q 603 604 499 708 q 620 599 615 590 q 625 618 625 607 l 625 674 q 646 694 625 694 q 667 674 667 694 l 667 451 q 646 431 667 431 q 625 451 625 431 l 625 521 q 472 644 565 600 q 363 667 424 667 q 187 626 249 667 q 125 522 125 585 q 178 426 125 460 q 342 375 232 392 q 438 360 389 367 q 525 344 486 353 q 650 289 606 326 q 694 174 694 251 q 622 42 694 97 q 403 -14 549 -14 q 192 53 289 -14 q 149 88 164 72 q 129 96 133 104 q 125 76 125 88 l 125 21 q 104 0 125 0 q 83 21 83 0 l 83 243 q 104 264 83 264 q 125 243 125 264 l 125 174 q 281 50 182 93 q 403 28 332 28 z "},"Ÿ":{"ha":871,"x_min":-14,"x_max":885,"o":"m 7 972 l 271 972 q 292 951 292 972 q 271 931 292 931 l 188 931 q 172 924 176 931 q 174 910 168 918 l 425 471 q 444 471 435 457 l 697 910 q 699 924 703 918 q 683 931 694 931 l 600 931 q 579 951 579 931 q 600 972 579 972 l 864 972 q 885 951 885 972 q 864 931 885 931 l 781 931 q 746 910 758 931 l 457 408 l 457 63 q 478 42 457 42 l 575 42 q 596 21 596 42 q 575 0 596 0 l 297 0 q 276 21 276 0 q 297 42 276 42 l 394 42 q 415 63 415 42 l 415 406 l 125 910 q 90 931 113 931 l 7 931 q -14 951 -14 931 q 7 972 -14 972 m 283 1085 q 268 1125 268 1101 q 284 1165 268 1149 q 324 1181 300 1181 q 363 1165 347 1181 q 379 1125 379 1149 q 363 1085 379 1101 q 324 1069 347 1069 q 283 1085 300 1069 m 506 1085 q 490 1125 490 1101 q 506 1165 490 1149 q 546 1181 522 1181 q 585 1165 569 1181 q 601 1125 601 1149 q 585 1085 601 1101 q 546 1069 569 1069 q 506 1085 522 1069 z "},"Ž":{"ha":854,"x_min":69,"x_max":785,"o":"m 139 931 q 118 910 118 931 l 118 757 q 97 736 118 736 q 76 757 76 736 l 76 951 q 97 972 76 972 l 764 972 q 785 949 785 972 q 780 934 785 940 q 768 917 775 928 l 144 64 q 140 49 138 56 q 160 42 143 42 l 715 42 q 736 63 736 42 l 736 215 q 757 236 736 236 q 778 215 778 236 l 778 21 q 757 0 778 0 l 90 0 q 69 24 69 0 q 74 38 69 32 q 86 56 79 44 l 710 908 q 714 924 717 917 q 694 931 711 931 l 139 931 m 424 1138 q 449 1138 436 1125 l 582 1269 q 596 1276 589 1276 q 611 1269 603 1276 q 618 1255 618 1263 q 611 1240 618 1247 l 458 1088 q 436 1078 449 1078 q 413 1089 424 1078 l 264 1240 q 256 1254 256 1247 q 264 1269 256 1261 q 278 1276 271 1276 q 293 1269 285 1276 l 424 1138 z "},"ž":{"ha":747,"x_min":68,"x_max":678,"o":"m 139 653 q 118 632 118 653 l 118 500 q 97 479 118 479 q 76 500 76 479 l 76 674 q 97 694 76 694 l 657 694 q 678 671 678 694 q 661 639 678 657 l 150 64 q 146 49 143 57 q 165 42 149 42 l 608 42 q 629 63 629 42 l 629 194 q 650 215 629 215 q 671 194 671 215 l 671 21 q 650 0 671 0 l 89 0 q 68 24 68 0 q 85 56 68 36 l 596 631 q 600 645 603 638 q 581 653 597 653 l 139 653 m 358 825 q 383 825 371 813 l 517 957 q 531 964 524 964 q 546 957 539 964 q 553 942 553 950 q 546 928 553 935 l 393 775 q 371 765 383 765 q 347 776 358 765 l 199 928 q 190 942 190 935 q 199 957 190 949 q 213 964 206 964 q 228 957 219 964 l 358 825 z "},"ƒ":{"ha":422,"x_min":-204,"x_max":575,"o":"m 207 -35 q 150 -226 207 -160 q -17 -292 93 -292 q -194 -212 -126 -292 q -204 -194 -204 -203 q -197 -181 -204 -186 q -164 -185 -183 -167 q -11 -250 -67 -243 q 119 -195 72 -250 q 165 -35 165 -140 l 164 632 q 143 653 164 653 l 46 653 q 25 674 25 653 q 46 694 25 694 l 143 694 q 164 715 164 694 l 164 729 q 221 920 164 854 q 386 986 278 986 q 488 964 444 986 q 553 919 531 942 q 575 889 575 897 q 564 871 575 881 q 534 878 553 860 q 477 921 515 897 q 386 944 439 944 q 252 890 299 944 q 206 729 206 835 l 206 715 q 226 694 206 694 l 449 694 q 469 674 469 694 q 449 653 469 653 l 226 653 q 206 632 206 653 l 207 -35 z "},"ˆ":{"ha":364,"x_min":1,"x_max":363,"o":"m 23 765 q 19 765 23 765 q 8 772 15 765 q 1 787 1 779 q 8 801 1 794 l 157 953 q 181 965 169 965 q 203 954 192 965 l 356 801 q 363 787 363 794 q 356 772 363 779 q 341 765 349 765 q 326 772 333 765 l 193 904 q 168 904 181 917 l 38 772 q 23 765 31 765 z "},"˜":{"ha":347,"x_min":0,"x_max":347,"o":"m 0 799 q 28 892 0 858 q 92 924 56 924 q 184 872 156 924 q 250 819 213 819 q 306 903 306 819 q 326 924 306 924 q 347 903 347 924 q 319 810 347 842 q 256 778 292 778 q 163 830 192 778 q 97 882 135 882 q 42 799 42 882 q 21 778 42 778 q 0 799 0 778 z "},"–":{"ha":906,"x_min":106,"x_max":800,"o":"m 126 424 q 106 444 106 424 q 126 465 106 465 l 779 465 q 800 444 800 465 q 779 424 800 424 l 126 424 z "},"—":{"ha":1156,"x_min":106,"x_max":1050,"o":"m 126 424 q 106 444 106 424 q 126 465 106 465 l 1029 465 q 1050 444 1050 465 q 1029 424 1050 424 l 126 424 z "},"‘":{"ha":318,"x_min":89,"x_max":233,"o":"m 89 765 l 89 786 q 117 909 89 858 q 193 981 144 960 q 208 985 200 985 q 224 975 217 985 q 215 949 233 957 q 131 821 131 911 l 131 810 q 169 821 147 821 q 210 802 192 821 q 228 751 228 783 q 209 701 228 719 q 158 682 190 682 q 89 765 89 682 z "},"’":{"ha":317,"x_min":99,"x_max":243,"o":"m 122 866 q 113 875 122 866 q 104 917 104 885 q 123 967 104 949 q 174 986 142 986 q 243 903 243 986 l 243 882 q 215 759 243 810 q 139 688 188 708 q 122 683 131 683 q 108 693 114 683 q 117 719 99 711 q 201 847 201 757 l 201 858 q 161 847 183 847 q 122 866 139 847 z "},"‚":{"ha":336,"x_min":99,"x_max":243,"o":"m 122 5 q 113 14 122 5 q 104 56 104 24 q 123 106 104 88 q 174 125 142 125 q 243 42 243 125 l 243 21 q 215 -102 243 -51 q 139 -174 188 -153 q 122 -178 131 -178 q 108 -168 114 -178 q 117 -142 99 -150 q 201 -14 201 -104 l 201 -3 q 161 -14 183 -14 q 122 5 139 -14 z "},"“":{"ha":513,"x_min":89,"x_max":428,"o":"m 89 765 l 89 786 q 117 909 89 858 q 193 981 144 960 q 208 985 200 985 q 224 975 217 985 q 215 949 233 957 q 131 821 131 911 l 131 810 q 169 821 147 821 q 210 802 192 821 q 228 751 228 783 q 209 701 228 719 q 158 682 190 682 q 89 765 89 682 m 283 765 l 283 786 q 311 909 283 858 q 388 981 339 960 q 403 985 394 985 q 418 975 411 985 q 410 949 428 957 q 325 821 325 911 l 325 810 q 364 821 342 821 q 404 802 386 821 q 422 751 422 783 q 403 701 422 719 q 353 682 385 682 q 283 765 283 682 z "},"”":{"ha":511,"x_min":99,"x_max":438,"o":"m 122 866 q 113 875 122 866 q 104 917 104 885 q 123 967 104 949 q 174 986 142 986 q 243 903 243 986 l 243 882 q 215 759 243 810 q 139 688 188 708 q 122 683 131 683 q 108 693 114 683 q 117 719 99 711 q 201 847 201 757 l 201 858 q 161 847 183 847 q 122 866 139 847 m 316 866 q 307 875 316 866 q 299 917 299 885 q 317 967 299 949 q 368 986 336 986 q 438 903 438 986 l 438 882 q 410 759 438 810 q 333 688 382 708 q 317 683 325 683 q 303 693 308 683 q 311 719 293 711 q 396 847 396 757 l 396 858 q 356 847 378 847 q 316 866 333 847 z "},"„":{"ha":531,"x_min":99,"x_max":438,"o":"m 122 5 q 113 14 122 5 q 104 56 104 24 q 123 106 104 88 q 174 125 142 125 q 243 42 243 125 l 243 21 q 215 -102 243 -51 q 139 -174 188 -153 q 122 -178 131 -178 q 108 -168 114 -178 q 117 -142 99 -150 q 201 -14 201 -104 l 201 -3 q 161 -14 183 -14 q 122 5 139 -14 m 316 5 q 307 14 316 5 q 299 56 299 24 q 317 106 299 88 q 368 125 336 125 q 438 42 438 125 l 438 21 q 410 -102 438 -51 q 333 -174 382 -153 q 317 -178 325 -178 q 303 -168 308 -178 q 311 -142 293 -150 q 396 -14 396 -104 l 396 -3 q 356 -14 378 -14 q 316 5 333 -14 z "},"†":{"ha":650,"x_min":47,"x_max":603,"o":"m 367 625 q 346 604 346 625 l 346 -257 q 325 -278 346 -278 q 304 -257 304 -278 l 304 604 q 283 625 304 625 l 68 625 q 47 646 47 625 q 68 667 47 667 l 283 667 q 304 688 304 667 l 304 951 q 325 972 304 972 q 346 951 346 972 l 346 688 q 367 667 346 667 l 582 667 q 603 646 603 667 q 582 625 603 625 l 367 625 z "},"‡":{"ha":675,"x_min":60,"x_max":615,"o":"m 594 69 q 615 49 615 69 q 594 28 615 28 l 379 28 q 358 11 360 28 l 358 -257 q 338 -278 358 -278 q 317 -257 317 -278 l 317 11 q 296 28 314 28 l 81 28 q 60 49 60 28 q 81 69 60 69 l 296 69 q 317 90 317 69 l 317 604 q 296 625 317 625 l 81 625 q 60 646 60 625 q 81 667 60 667 l 296 667 q 317 688 317 667 l 317 951 q 338 972 317 972 q 358 951 358 972 l 358 688 q 379 667 358 667 l 594 667 q 615 646 615 667 q 594 625 615 625 l 379 625 q 358 604 358 625 l 358 90 q 379 69 358 69 l 594 69 z "},"•":{"ha":478,"x_min":86,"x_max":392,"o":"m 131 378 q 108 400 131 378 q 86 486 86 422 q 131 594 86 550 q 239 639 175 639 q 347 594 303 639 q 392 486 392 550 q 347 378 392 422 q 239 333 303 333 q 131 378 175 333 z "},"…":{"ha":919,"x_min":99,"x_max":821,"o":"m 117 5 q 108 14 117 5 q 99 56 99 24 q 117 106 99 88 q 168 125 136 125 q 219 106 200 125 q 238 56 238 88 q 219 5 238 24 q 168 -14 200 -14 q 117 5 136 -14 m 409 5 q 400 14 409 5 q 390 56 390 24 q 409 106 390 88 q 460 125 428 125 q 510 106 492 125 q 529 56 529 88 q 510 5 529 24 q 460 -14 492 -14 q 409 5 428 -14 m 701 5 q 691 14 701 5 q 682 56 682 24 q 701 106 682 88 q 751 125 719 125 q 802 106 783 125 q 821 56 821 88 q 802 5 821 24 q 751 -14 783 -14 q 701 5 719 -14 z "},"‰":{"ha":1589,"x_min":54,"x_max":1540,"o":"m 263 10 q 233 3 251 -6 q 228 32 215 13 l 829 961 q 857 968 840 976 q 863 940 876 956 l 263 10 m 999 222 q 944 361 999 304 q 811 417 890 417 q 678 361 732 417 q 624 222 624 306 q 678 83 624 140 q 811 28 732 28 q 944 83 890 28 q 999 222 999 140 m 582 222 q 647 390 582 322 q 811 458 713 458 q 975 390 910 458 q 1040 222 1040 322 q 975 54 1040 122 q 811 -14 910 -14 q 647 54 713 -14 q 582 222 582 122 m 471 750 q 417 889 471 832 q 283 944 363 944 q 150 889 204 944 q 96 750 96 833 q 150 611 96 668 q 283 556 204 556 q 417 611 363 556 q 471 750 471 668 m 54 750 q 119 918 54 850 q 283 986 185 986 q 447 918 382 986 q 513 750 513 850 q 447 582 513 650 q 283 514 382 514 q 119 582 185 514 q 54 750 54 650 m 1499 222 q 1444 361 1499 304 q 1311 417 1390 417 q 1178 361 1232 417 q 1124 222 1124 306 q 1178 83 1124 140 q 1311 28 1232 28 q 1444 83 1390 28 q 1499 222 1499 140 m 1082 222 q 1147 390 1082 322 q 1311 458 1213 458 q 1475 390 1410 458 q 1540 222 1540 322 q 1475 54 1540 122 q 1311 -14 1410 -14 q 1147 54 1213 -14 q 1082 222 1082 122 z "},"‹":{"ha":494,"x_min":54,"x_max":422,"o":"m 65 368 l 386 688 q 401 694 393 694 q 415 688 408 694 q 422 673 422 681 q 415 658 422 665 l 115 358 q 115 333 103 346 l 413 36 q 419 22 419 29 q 412 7 419 14 q 397 0 404 0 q 383 7 390 0 l 67 322 q 54 346 54 335 q 65 368 54 357 z "},"›":{"ha":494,"x_min":71,"x_max":440,"o":"m 79 658 q 71 673 71 665 q 78 688 71 681 q 94 694 86 694 q 108 688 101 694 l 429 368 q 440 346 440 357 q 428 322 440 335 l 111 7 q 97 0 104 0 q 82 7 89 0 q 75 22 75 14 q 82 36 75 29 l 379 333 q 379 358 392 346 l 79 658 z "},"€":{"ha":1074,"x_min":50,"x_max":1008,"o":"m 654 28 q 972 154 851 28 q 997 157 986 168 q 1008 139 1008 146 q 1001 125 1008 132 q 654 -14 860 -14 q 356 89 478 -14 q 201 361 235 192 l 71 361 q 50 382 50 361 q 71 403 50 403 l 194 403 q 189 485 189 438 q 194 569 189 532 l 99 569 q 78 590 78 569 q 99 611 78 611 l 201 611 q 350 882 235 778 q 629 986 465 986 q 931 868 793 986 q 953 882 953 849 l 953 951 q 974 972 953 972 q 994 951 994 972 l 994 688 q 974 667 994 667 q 953 688 953 667 l 953 785 q 865 864 915 828 q 617 944 751 944 q 380 853 483 944 q 243 611 276 761 l 640 611 q 661 590 661 611 q 640 569 661 569 l 236 569 q 231 485 231 532 q 236 403 231 438 l 613 403 q 633 382 633 403 q 613 361 633 361 l 243 361 q 386 119 276 210 q 654 28 496 28 z "},"™":{"ha":1313,"x_min":108,"x_max":1206,"o":"m 108 861 l 108 951 q 129 972 108 972 l 490 972 q 511 951 511 972 l 511 861 q 490 840 511 840 q 469 861 469 840 l 469 910 q 449 931 469 931 l 351 931 q 331 910 331 931 l 331 604 q 351 583 331 583 l 407 583 q 428 563 428 583 q 407 542 428 542 l 213 542 q 192 563 192 542 q 213 583 192 583 l 268 583 q 289 604 289 583 l 289 910 q 268 931 289 931 l 171 931 q 150 910 150 931 l 150 861 q 129 840 150 840 q 108 861 108 840 m 574 583 l 629 583 q 650 604 650 583 l 650 910 q 629 931 650 931 l 574 931 q 553 951 553 931 q 574 972 553 972 l 681 972 q 715 951 706 972 l 865 632 q 893 632 879 604 l 1043 951 q 1078 972 1053 972 l 1185 972 q 1206 951 1206 972 q 1185 931 1206 931 l 1129 931 q 1108 910 1108 931 l 1108 604 q 1129 583 1108 583 l 1185 583 q 1206 563 1206 583 q 1185 542 1206 542 l 1018 542 q 997 563 997 542 q 1018 583 997 583 l 1046 583 q 1067 604 1067 583 l 1067 875 q 1061 886 1067 889 q 1056 882 1058 886 l 906 563 q 879 542 896 542 q 853 563 863 542 l 703 882 q 694 886 697 890 q 692 875 692 882 l 692 604 q 713 583 692 583 l 740 583 q 761 563 761 583 q 740 542 761 542 l 574 542 q 553 563 553 542 q 574 583 553 583 z "}}}
